<?xml version="1.0" encoding="UTF-8"?>
<svg version="1.1" xmlns="http://www.w3.org/2000/svg" width="2157" height="2157">
<path d="M0 0 C4.39956667 0.49672527 5.4179592 1.77934427 8.5859375 4.62573242 C13.53000281 8.53890528 19.2769744 11.32489596 24.8125 14.3125 C26.13629148 15.03474626 27.45985776 15.75740543 28.78320312 16.48046875 C36.26339526 20.55402251 43.80588183 24.45169941 51.4609375 28.1875 C57.90729916 31.41225542 64.192612 34.95116485 70.5 38.4375 C71.10811523 38.77330078 71.71623047 39.10910156 72.34277344 39.45507812 C82.45633134 45.04515718 92.51437672 50.73145671 102.50073242 56.54614258 C109.03766605 60.35120869 115.64693887 63.88380477 122.42797852 67.2331543 C135.6225845 73.75761517 148.59748664 80.60793599 161.27294922 88.09204102 C169.41098298 92.84525119 177.78867744 97.13196021 186.18603516 101.40356445 C192.57228995 104.66516695 198.80681827 108.09184591 204.97753906 111.74462891 C207.75611516 113.36804032 210.56224161 114.91793888 213.39453125 116.4453125 C218.18314802 119.03482073 222.8764771 121.76268088 227.56079102 124.53564453 C236.46913669 129.80892146 245.38787631 134.87025494 254.69921875 139.390625 C273.0420126 148.30217698 290.98827937 158.11852259 308.5 168.5625 C315.10168514 172.49229099 321.83020634 176.00748741 328.7265625 179.38671875 C345.21992287 187.48338752 361.35364368 196.41372776 377.30078125 205.53125 C387.53075749 211.37618443 397.82049575 217.01203807 408.3125 222.375 C416.87248972 226.75202702 425.2449552 231.32253749 433.5 236.25 C442.8826604 241.8407453 452.45837171 246.92433614 462.1875 251.875 C481.08527743 261.49605759 499.70204334 271.56361974 517.8203125 282.59765625 C522.42323962 285.37000749 527.12963875 287.91904684 531.875 290.4375 C533.17325537 291.13266631 534.47142617 291.82799059 535.76953125 292.5234375 C542.80009584 296.27821362 549.85890143 299.95963176 557 303.5 C567.17848462 308.55124895 577.18157705 313.88956879 587.0625 319.5 C598.15497662 325.79615023 609.44168443 331.74073503 620.69628906 337.74023438 C623.41276357 339.19068989 626.12570993 340.6472936 628.8359375 342.109375 C629.52679443 342.48118896 630.21765137 342.85300293 630.92944336 343.23608398 C632.65025533 344.16264072 634.37010031 345.09099278 636.08984375 346.01953125 C638.64665798 347.32124733 641.20633373 348.39182652 643.875 349.4375 C644.63787984 368.98036433 645.02031588 388.48325638 645.00198364 408.0431366 C645.00258606 410.78513438 645.00468999 413.52713061 645.00671089 416.26912767 C645.01027773 422.16731671 645.01024119 428.06549656 645.00766373 433.96368599 C645.00384178 442.73386915 645.00583499 451.50404472 645.00887203 460.27422785 C645.01410643 475.94068337 645.01369442 491.60713477 645.01079312 507.27359066 C645.00826973 520.96737562 645.00762454 534.66115908 645.00881577 548.35494423 C645.00889215 549.26604919 645.00896854 550.17715416 645.00904724 551.11586836 C645.0093586 554.81477342 645.009677 558.51367847 645.010007 562.21258352 C645.01305812 596.82482814 645.01030382 631.43707014 645.0049101 666.04931436 C645.00015452 696.80086266 645.00059908 727.55240681 645.00537109 758.30395508 C645.01072134 792.8968464 645.01285246 827.48973544 645.00975883 862.08262712 C645.00943812 865.76611189 645.00912528 869.44959666 645.00881577 873.13308144 C645.00873669 874.03998032 645.00865761 874.94687921 645.00857614 875.88125988 C645.00743792 889.58522539 645.00877009 903.28918924 645.01129532 916.99315453 C645.01414806 932.55153286 645.01345316 948.10990646 645.00801457 963.6682842 C645.00507014 972.37942938 645.00489844 981.09056434 645.00866075 989.80170926 C645.01089385 995.61108042 645.00952452 1001.42044334 645.00515598 1007.22981328 C645.00276507 1010.54487844 645.00253165 1013.85991898 645.00556196 1017.17498424 C645.00857006 1020.73677909 645.00551714 1024.29851686 645.00084114 1027.86030865 C645.00318231 1028.90111583 645.00552347 1029.94192301 645.00793558 1031.0142698 C645.00543207 1031.95794686 645.00292855 1032.90162392 645.00034916 1033.87389725 C645.00024753 1035.09662183 645.00024753 1035.09662183 645.00014383 1036.34404792 C644.875 1038.4375 644.875 1038.4375 643.875 1041.4375 C641.53686523 1042.61987305 641.53686523 1042.61987305 638.49609375 1043.76171875 C632.37294442 1046.18586065 626.69278333 1049.06267259 620.9375 1052.25 C619.91446777 1052.80913086 618.89143555 1053.36826172 617.83740234 1053.94433594 C612.23012154 1057.01480905 606.64441754 1060.12282079 601.06640625 1063.24609375 C598.71202307 1064.56184947 596.35644943 1065.87544861 594 1067.1875 C593.10690628 1067.68506805 593.10690628 1067.68506805 592.19577026 1068.19268799 C581.39225762 1074.19534279 570.38831231 1079.74000858 559.3062439 1085.20727539 C549.38515538 1090.1070176 539.66458127 1095.22749914 530.08056641 1100.76635742 C523.27521732 1104.6890298 516.36313466 1108.35154698 509.375 1111.9375 C501.31068428 1116.0786351 493.36395313 1120.36503244 485.5 1124.875 C471.67522483 1132.78833567 457.4985409 1140.00019719 443.32128906 1147.25634766 C430.2429953 1153.95366225 417.31468008 1160.74601315 404.72558594 1168.32568359 C392.42538084 1175.71554297 379.65475234 1182.1061859 366.81225586 1188.48706055 C349.66847474 1197.0065783 332.80412302 1205.94469591 316.23828125 1215.54296875 C308.07590032 1220.24124643 299.75974485 1224.52221746 291.3125 1228.6875 C281.81100695 1233.37616544 272.54432673 1238.34848602 263.3581543 1243.62524414 C253.89258294 1249.04688896 244.23255457 1254.06330244 234.53857422 1259.06152344 C214.73714444 1269.29074967 194.9988929 1279.71640855 175.5625 1290.625 C163.22093635 1297.54440602 150.61243767 1303.96783322 138.03515625 1310.4453125 C128.70477396 1315.26418885 119.46397282 1320.17541803 110.375 1325.4375 C98.39891394 1332.36965969 86.13070122 1338.70713605 73.81103516 1345.00341797 C60.13267683 1351.994292 46.73762597 1359.30102465 33.51953125 1367.12890625 C27.5620451 1370.64882244 21.51432319 1373.99489388 15.40454102 1377.24291992 C11.62067895 1379.29407399 8.91706387 1381.3545115 5.875 1384.4375 C-0.56723834 1385.54823075 -3.84623671 1383.75047361 -9.1875 1380.265625 C-12.56870937 1378.16136172 -16.04670428 1376.42638723 -19.625 1374.6875 C-25.4106155 1371.84899002 -31.07266164 1368.84999539 -36.6875 1365.6875 C-49.93802889 1358.23897784 -63.42788203 1351.21866337 -77.0625 1344.5 C-84.91621359 1340.62996434 -92.57991953 1336.41917404 -100.26342773 1332.22387695 C-106.62385757 1328.76110509 -113.02820713 1325.43879815 -119.53125 1322.25390625 C-124.15621881 1319.9703279 -128.64716723 1317.49633891 -133.125 1314.9375 C-141.87176271 1309.94765797 -150.8527812 1305.50890744 -159.89404297 1301.08154297 C-170.86928358 1295.6974287 -181.71318695 1290.27036577 -192.17993164 1283.94580078 C-197.32394614 1280.85378383 -202.57701009 1278.1116038 -207.96679688 1275.47558594 C-213.24079992 1272.89540521 -218.43890265 1270.18982813 -223.625 1267.4375 C-229.48160835 1264.33153536 -235.3646574 1261.30226435 -241.3125 1258.375 C-247.39019016 1255.37509024 -253.30555974 1252.14577524 -259.19604492 1248.79492188 C-269.25755606 1243.07292215 -279.48722694 1237.71613017 -289.85888672 1232.58007812 C-296.02824074 1229.51400592 -302.11666679 1226.30197584 -308.20263672 1223.07421875 C-312.76695247 1220.65917808 -317.35675848 1218.32360458 -322 1216.0625 C-327.97579755 1213.10950659 -333.73083815 1209.83670556 -339.5 1206.5 C-347.54504897 1201.8520995 -355.66513915 1197.521642 -364.02050781 1193.46337891 C-379.62366081 1185.85729435 -395.16563391 1178.08259017 -410.1875 1169.375 C-417.67065055 1165.05615311 -425.37124999 1161.24249228 -433.125 1157.4375 C-442.68199729 1152.71682697 -452.19089245 1147.90221221 -461.67251587 1143.03201294 C-462.90175627 1142.40144443 -464.13183648 1141.77250946 -465.36288452 1141.14547729 C-472.49535902 1137.50976989 -479.44447814 1133.69250929 -486.30859375 1129.57421875 C-494.71802888 1124.54757885 -503.39322786 1120.17733285 -512.1913147 1115.87701416 C-526.98756375 1108.63692359 -541.50962322 1101.12301827 -555.73803711 1092.8137207 C-562.82523648 1088.72754469 -569.99988189 1084.90567469 -577.4375 1081.5 C-588.87255009 1076.18511756 -600.07895298 1070.52319078 -611.125 1064.4375 C-621.20263768 1058.82199687 -621.20263768 1058.82199687 -631.75 1054.1875 C-636.28556394 1052.4621775 -639.97704237 1050.7358246 -642.23451636 1046.21613863 C-643.27311282 1042.97533317 -643.37404686 1040.32046553 -643.3727383 1036.9167819 C-643.3752212 1036.27144506 -643.3777041 1035.62610822 -643.38026224 1034.96121572 C-643.38615334 1032.79158591 -643.37774595 1030.62224766 -643.36944485 1028.45262909 C-643.37073298 1026.87761463 -643.37289756 1025.30260068 -643.3758609 1023.72758847 C-643.38147018 1019.37774635 -643.37452188 1015.02799936 -643.36559999 1010.67816607 C-643.35808861 1005.95413338 -643.36211899 1001.23010852 -643.36468512 996.50607252 C-643.36755761 988.2193729 -643.36288776 979.93270366 -643.3533268 971.64600945 C-643.33911061 959.32365798 -643.33625249 947.00132219 -643.3355386 934.6789635 C-643.33361151 910.11115785 -643.31564347 885.54337643 -643.293922 860.97558152 C-643.29279823 859.70274265 -643.29167445 858.42990378 -643.29051661 857.11849403 C-643.28938928 855.84316923 -643.28826194 854.56784443 -643.28710045 853.25387342 C-643.27481966 839.13530978 -643.26597813 825.0167443 -643.25726509 810.8981781 C-643.23059846 768.27725816 -643.20069743 725.65634464 -643.1571722 683.03543854 C-643.155769 681.65790508 -643.15436617 680.28037161 -643.15296372 678.90283815 C-643.14662862 672.68323361 -643.14027094 666.46362909 -643.13391297 660.24402457 C-643.13107859 657.47047862 -643.1282475 654.69693267 -643.12541708 651.92338672 C-643.12399954 650.53517681 -643.12258038 649.1469669 -643.1211596 647.75875699 C-643.07622843 603.85040044 -643.05021369 559.94206919 -643.03930664 516.03369141 C-643.02724685 467.51708104 -642.99823328 419.00052944 -642.9458161 370.48394251 C-642.94029609 365.31490237 -642.93484583 360.14586216 -642.92944527 354.9768219 C-642.92810623 353.70400992 -642.92676719 352.43119795 -642.92538758 351.11981591 C-642.90421061 330.60058505 -642.89932683 310.08138099 -642.90012524 289.5621406 C-642.90049718 268.95641038 -642.88239639 248.35076069 -642.84536349 227.74506319 C-642.82387339 215.49066942 -642.81635075 203.2364503 -642.82855221 190.98204277 C-642.83532342 182.80737446 -642.82411581 174.63286141 -642.79798785 166.45823231 C-642.78359507 161.7933422 -642.77727138 157.12881062 -642.7927283 152.46391577 C-642.80661563 148.22514798 -642.797771 143.98707637 -642.77032193 139.74838027 C-642.76448661 138.21967887 -642.76713113 136.69091723 -642.77901847 135.16225091 C-642.79390083 133.09338943 -642.77821396 131.02694741 -642.75470585 128.9582181 C-642.75379043 127.81085146 -642.752875 126.66348482 -642.75193184 125.4813495 C-641.78489128 120.78622039 -638.81082823 118.62163074 -635.01171875 115.953125 C-634.28597656 115.53546875 -633.56023437 115.1178125 -632.8125 114.6875 C-631.94238281 114.18476563 -631.07226562 113.68203125 -630.17578125 113.1640625 C-629.16902344 112.59429687 -628.16226562 112.02453125 -627.125 111.4375 C-625.9099554 110.7373276 -624.69512403 110.03678508 -623.48046875 109.3359375 C-616.80779733 105.51109367 -610.08223264 101.84696445 -603.1875 98.4375 C-589.89911758 91.85894844 -577.0773676 84.902688 -564.5012207 77.02905273 C-557.79687648 72.83397288 -551.02504989 68.95531662 -543.98974609 65.34033203 C-531.77825181 59.05808967 -519.85166072 52.45446758 -508.078125 45.3828125 C-501.69777301 41.55969465 -495.18965206 37.99506939 -488.625 34.5 C-484.27321758 32.1379526 -480.16177675 29.56026813 -476.09765625 26.734375 C-472.43025156 24.32332875 -470.64619145 23.4375 -466.125 23.4375 C-466.125 20.7975 -466.125 18.1575 -466.125 15.4375 C-465.135 15.4375 -464.145 15.4375 -463.125 15.4375 C-462.23387645 20.00486829 -461.98519357 24.41289068 -462.00474548 29.05062008 C-462.00389115 29.80177342 -462.00303681 30.55292677 -462.00215659 31.32684233 C-462.00050958 33.84983135 -462.00602034 36.37275377 -462.01147461 38.89573669 C-462.01175609 40.72638117 -462.01159415 42.55702575 -462.01102781 44.38767016 C-462.01073475 49.43713936 -462.01668957 54.48658519 -462.02359974 59.53604896 C-462.02997358 65.01042523 -462.03050069 70.48480237 -462.03170013 75.95918179 C-462.03455895 85.53426292 -462.04099567 95.10933639 -462.04969788 104.68441391 C-462.06246412 118.83539946 -462.0689293 132.98638286 -462.07372195 147.13737312 C-462.07600264 153.8437845 -462.07851323 160.55019579 -462.08109283 167.25660706 C-462.08148 168.26829754 -462.08148 168.26829754 -462.08187498 169.30042622 C-462.08757972 184.07616991 -462.09584426 198.85191193 -462.10423845 213.62765428 C-462.13738449 272.06607997 -462.15102158 330.5045098 -462.1558702 388.94294426 C-462.15618088 392.6630879 -462.15653704 396.38323154 -462.15690366 400.10337518 C-462.16507299 483.98336586 -462.10986301 567.86286644 -461.63411427 766.66552526 C-461.6219055 771.13212827 -461.60978592 775.59873153 -461.59766474 780.06533478 C-461.4516393 833.85609195 -461.2957967 887.64681565 -461.125 941.4375 C-459.92242554 941.93213745 -459.92242554 941.93213745 -458.69555664 942.43676758 C-457.63199951 942.87657959 -456.56844238 943.3163916 -455.47265625 943.76953125 C-454.42343994 944.20241455 -453.37422363 944.63529785 -452.29321289 945.08129883 C-447.11361803 947.2985023 -442.12654907 949.8481266 -437.125 952.4375 C-436.13814209 952.94144287 -436.13814209 952.94144287 -435.13134766 953.45556641 C-424.3087561 958.98645564 -413.78877823 964.93014651 -403.3269043 971.11425781 C-396.38479699 975.19049955 -389.3485438 979.01088475 -382.1875 982.6875 C-374.90707633 986.42593106 -367.7735852 990.2984719 -360.75610352 994.50878906 C-353.3839836 998.92105654 -345.87113188 1003.07489971 -338.36401367 1007.25195312 C-332.20847745 1010.68550682 -326.10954611 1014.19181691 -320.0625 1017.8125 C-312.91784112 1022.07517184 -305.57168493 1025.79196469 -298.10791016 1029.45751953 C-281.33336231 1037.74772331 -265.3141708 1047.41423219 -249.33813477 1057.1328125 C-244.61790709 1059.99826626 -239.90363665 1062.64832924 -234.9375 1065.0625 C-219.86385931 1072.50019996 -204.9735341 1080.14564053 -190.63183594 1088.92553711 C-183.47744948 1093.28680201 -176.16066231 1097.30486958 -168.78637695 1101.28027344 C-164.05225166 1103.83413708 -159.3673842 1106.42833139 -154.75 1109.1875 C-150.40650182 1111.76625786 -145.97179044 1114.03428804 -141.4375 1116.25 C-135.78157959 1119.01704615 -130.33368953 1122.00632294 -124.9375 1125.25 C-118.75547318 1128.96477009 -112.47708487 1132.39134959 -106.0625 1135.6875 C-95.05766292 1141.35733907 -84.41409574 1147.59534275 -73.75683594 1153.88818359 C-65.48643047 1158.75682859 -57.12837546 1163.45617827 -48.68359375 1168.015625 C-46.22209064 1169.38354428 -43.83167564 1170.83058097 -41.4375 1172.3125 C-37.11456402 1174.94625047 -32.66333998 1177.20678159 -28.125 1179.4375 C-11.99225508 1187.39654678 -11.99225508 1187.39654678 -7.4375 1192.375 C-5.22876197 1194.78576198 -5.22876197 1194.78576198 -1.8125 1194.5625 C1.85680311 1193.44305159 4.23120503 1192.10133476 7.37109375 1189.9921875 C10.43144355 1188.09200151 13.63404454 1186.56000911 16.875 1185 C28.23278686 1179.4586859 39.00410627 1172.8643061 49.875 1166.4375 C63.62400074 1158.32705933 77.59147073 1150.688262 91.66650391 1143.15869141 C116.16511548 1130.17888263 116.16511548 1130.17888263 140.125 1116.25 C143.68387535 1114.07746564 147.31454041 1112.20218601 151.0625 1110.375 C157.68880778 1107.11270593 164.13054723 1103.56701448 170.5625 1099.9375 C171.51213623 1099.40374756 172.46177246 1098.86999512 173.44018555 1098.32006836 C179.19635578 1095.05324128 184.81380536 1091.62388926 190.3659668 1088.02099609 C194.7425766 1085.25883874 199.3029967 1082.85730249 203.875 1080.4375 C205.20198744 1079.72817228 206.52879848 1079.01851449 207.85546875 1078.30859375 C214.40077551 1074.81611855 220.95562556 1071.37641917 227.625 1068.125 C236.42358743 1063.76615956 244.86968674 1058.78892013 253.36962891 1053.88037109 C259.50765171 1050.34541545 265.68849778 1046.88670059 271.875 1043.4375 C272.6572998 1043.00050781 273.43959961 1042.56351563 274.24560547 1042.11328125 C282.76891106 1037.35980326 291.29194652 1032.65862401 300.0625 1028.375 C307.74596108 1024.60685485 315.05916986 1020.31210814 322.39794922 1015.91796875 C335.6810718 1007.97899227 348.94163211 1000.18563847 362.86621094 993.42675781 C374.33324634 987.77964704 385.47860297 981.59638044 396.45703125 975.05859375 C409.02377319 967.57859252 421.78168452 960.43007079 434.625 953.4375 C435.61250244 952.89762451 436.60000488 952.35774902 437.61743164 951.80151367 C445.78202629 947.38305169 452.60771423 943.76139797 461.875 942.4375 C462.205 777.4375 462.535 612.4375 462.875 442.4375 C454.625 438.1475 446.375 433.8575 437.875 429.4375 C428.6875 424.3125 428.6875 424.3125 424.375 421.88671875 C419.39398842 419.13364629 414.29455736 416.63403742 409.1875 414.125 C399.28672893 409.2538973 389.70778933 403.90811147 380.1328125 398.4296875 C374.74591751 395.3495427 369.29437691 392.41890621 363.8046875 389.52734375 C359.78350177 387.40252468 355.80115261 385.2084871 351.81542969 383.01806641 C344.00866685 378.73057212 336.18808671 374.51905636 328.19897461 370.58154297 C313.64485915 363.39491184 299.26348736 355.85525085 285.12060547 347.890625 C280.51685932 345.3109306 275.86255079 342.88642355 271.125 340.5625 C263.66280482 336.9020493 256.38024037 332.9412927 249.09667969 328.93896484 C243.38354285 325.8006092 237.64793055 322.71433037 231.875 319.6875 C226.78978576 317.01939812 221.77673935 314.26166016 216.8125 311.375 C208.53020655 306.59928482 199.9775756 302.41863636 191.39013672 298.22363281 C179.93671787 292.61999788 168.70826237 286.75553654 157.63818359 280.42626953 C144.3043033 272.80336217 130.86889918 265.30065715 117.0625 258.5625 C110.02649659 255.1235805 103.20690076 251.32592341 96.375 247.5 C86.04054028 241.71519632 75.64644827 236.0567038 65.1875 230.5 C64.5368457 230.15341339 63.88619141 229.80682678 63.21582031 229.44973755 C56.08797979 225.6553953 48.92800585 221.94236072 41.6953125 218.3515625 C34.86321869 214.95949038 28.13051747 211.41003547 21.4375 207.75 C20.44041016 207.20794922 19.44332031 206.66589844 18.41601562 206.10742188 C17.43439453 205.57310547 16.45277344 205.03878906 15.44140625 204.48828125 C14.50055176 203.97861816 13.55969727 203.46895508 12.59033203 202.94384766 C10.8176512 201.96044173 9.06199169 200.94551855 7.32763672 199.89599609 C6.54791504 199.42887207 5.76819336 198.96174805 4.96484375 198.48046875 C4.29187256 198.06176514 3.61890137 197.64306152 2.92553711 197.21166992 C0.19690758 196.18148963 -1.36239314 196.60365096 -4.125 197.4375 C-6.50480166 198.7337686 -8.77416776 200.06027745 -11.0625 201.5 C-12.41479485 202.32775441 -13.76767153 203.15455895 -15.12109375 203.98046875 C-15.79769043 204.39603027 -16.47428711 204.8115918 -17.17138672 205.23974609 C-25.91881384 210.60276502 -34.7797049 215.27811621 -44.0625 219.625 C-54.09148029 224.33021739 -63.69303365 229.58670881 -73.29296875 235.10546875 C-91.26891196 245.43336589 -109.68531525 255.04451326 -128.12109375 264.5234375 C-138.916068 270.08344933 -149.59633068 275.7592605 -160.10327148 281.84716797 C-170.25694868 287.71203168 -180.61226767 293.19861945 -190.94873047 298.73242188 C-195.85160422 301.36437194 -200.74006218 304.0224389 -205.625 306.6875 C-206.5229126 307.17702148 -207.4208252 307.66654297 -208.34594727 308.17089844 C-212.55211756 310.4686101 -216.74936058 312.78056923 -220.9296875 315.125 C-221.70248047 315.55780273 -222.47527344 315.99060547 -223.27148438 316.43652344 C-224.66277913 317.21752632 -226.05239986 318.00152792 -227.43945312 318.79003906 C-232.09729648 321.40688326 -236.84831495 323.81599749 -241.6328125 326.19140625 C-250.03790907 330.36503298 -258.33907467 334.72045136 -266.625 339.125 C-268.11880279 339.91750368 -269.61261809 340.70998379 -271.10644531 341.50244141 C-282.56966423 347.58887585 -293.99855722 353.73678278 -305.39404297 359.94921875 C-308.10623736 361.42727498 -310.82048289 362.90150261 -313.53515625 364.375 C-323.35303192 369.70933776 -333.14893104 375.0839013 -342.92636108 380.49200439 C-344.13155927 381.15816394 -345.33729989 381.8233432 -346.54360962 382.48748779 C-348.23123017 383.41707958 -349.91644361 384.35103723 -351.6015625 385.28515625 C-352.57174316 385.82148682 -353.54192383 386.35781738 -354.54150391 386.91040039 C-357.12316678 388.35135235 -357.12316678 388.35135235 -359.22021484 390.13452148 C-361.125 391.4375 -361.125 391.4375 -365.125 391.4375 C-365.14842489 368.39240294 -365.1660261 345.34730785 -365.17681217 322.30220127 C-365.18195483 311.60047061 -365.18895858 300.89874738 -365.20043945 290.19702148 C-365.2104486 280.86264873 -365.21686818 271.52828136 -365.21908849 262.19390339 C-365.22038507 257.25758919 -365.2234036 252.32129039 -365.23073006 247.38498116 C-365.23758887 242.72537811 -365.2395972 238.06579658 -365.23810768 233.40618896 C-365.23837963 231.70885539 -365.24032562 230.01152098 -365.24420547 228.31419182 C-365.25569803 223.02052568 -365.2122285 217.73040592 -365.125 212.4375 C-365.11740182 211.648436 -365.10980363 210.859372 -365.1019752 210.04639697 C-365.07133466 207.68856805 -365.00576705 205.3341793 -364.93040466 202.97740173 C-364.92512475 202.26228631 -364.91984484 201.54717088 -364.91440493 200.81038529 C-364.82804012 198.80369473 -364.82804012 198.80369473 -364.125 195.4375 C-361.29212232 193.19416737 -358.38215058 192.06686487 -355 190.875 C-347.19909965 187.83809674 -339.92371215 183.68804444 -332.55908203 179.73681641 C-330.28467879 178.52273676 -328.00241538 177.32575949 -325.71484375 176.13671875 C-318.50288027 172.37969243 -311.41977168 168.48250061 -304.4375 164.3125 C-298.42707123 160.72404236 -292.34318309 157.47851837 -286.046875 154.41015625 C-281.01568394 151.91984978 -276.10885137 149.19896699 -271.1875 146.5 C-270.23721924 145.97913818 -269.28693848 145.45827637 -268.30786133 144.92163086 C-266.44100004 143.89809639 -264.57421739 142.87441845 -262.70751953 141.85058594 C-259.18891499 139.9252992 -255.66193037 138.01639652 -252.125 136.125 C-251.53082275 135.80724609 -250.93664551 135.48949219 -250.32446289 135.16210938 C-246.29736499 133.02384705 -242.22101909 131.00229505 -238.125 129 C-232.80395716 126.36307522 -227.75866114 123.44354544 -222.70385742 120.33178711 C-214.90272876 115.5975852 -206.81119165 111.38730127 -198.75683594 107.10546875 C-197.53969261 106.4583727 -196.32257008 105.81123753 -195.10546875 105.1640625 C-194.50803864 104.84648987 -193.91060852 104.52891724 -193.29507446 104.20172119 C-187.91510878 101.33670316 -182.57869642 98.39643857 -177.25 95.4375 C-171.7867743 92.405355 -166.30198099 89.49252913 -160.6875 86.75 C-156.20317538 84.55231465 -151.9721595 82.16662705 -147.75 79.5 C-141.28868131 75.44720154 -134.60254139 72.06357375 -127.75927734 68.72607422 C-122.73850292 66.27012914 -117.73183398 63.78581553 -112.72805786 61.29547119 C-110.92847494 60.40156266 -109.12626215 59.5129546 -107.32397461 58.62451172 C-100.71871792 55.34119971 -94.29667985 51.86797431 -87.95263672 48.10522461 C-83.62662825 45.55376857 -79.22480451 43.14818031 -74.8125 40.75 C-73.87591553 40.23945068 -72.93933105 39.72890137 -71.97436523 39.20288086 C-65.2531188 35.55407644 -58.48121577 32.01154793 -51.6875 28.5 C-37.163944 20.97867368 -15.81808683 2.21453216 0 0 Z M1.875 37.4375 C1.875 77.6975 1.875 117.9575 1.875 159.4375 C8.805 163.3975 8.805 163.3975 15.875 167.4375 C17.504375 168.530625 19.13375 169.62375 20.8125 170.75 C27.18263249 174.87792091 34.04617429 177.95092438 40.90209961 181.17236328 C49.65937543 185.29567162 58.22253127 189.72101327 66.74951172 194.29833984 C68.74718919 195.36899952 70.74935185 196.43056551 72.75390625 197.48828125 C77.93707099 200.22842133 83.10222209 202.99079973 88.20703125 205.875 C95.39108574 209.9307154 102.54631999 213.84171907 110.0625 217.25 C120.06691285 221.80731705 129.4995036 227.34830302 139.02783203 232.81347656 C155.26985666 242.07792072 171.75758895 250.93984704 188.515625 259.234375 C204.24602566 267.02316312 219.71077912 274.95574071 234.67578125 284.16015625 C240.09192518 287.48430351 245.65810363 290.38759298 251.35571289 293.19384766 C256.78618441 295.87280456 262.15013549 298.66381107 267.5 301.5 C272.86340955 304.34234022 278.23829629 307.13672614 283.6875 309.8125 C289.44130372 312.66300827 295.06487387 315.71218303 300.6875 318.8125 C310.20198353 324.05538126 319.83114606 329.0504254 329.5 334 C342.47277632 340.64513248 355.30869863 347.48458604 368.00878906 354.63964844 C381.07743996 362.00015296 394.35542466 368.91610264 407.68554688 375.79052734 C419.34021484 381.80877521 430.90596221 387.94485373 442.3125 394.421875 C446.18185924 396.61832945 450.08796335 398.74330341 454.00390625 400.85546875 C456.1554909 402.0410358 458.28159582 403.24980976 460.40234375 404.48828125 C461.70495213 405.24352928 463.00836431 405.99739235 464.3125 406.75 C465.30080811 407.3210144 465.30080811 407.3210144 466.30908203 407.90356445 C470.21521758 410.10543067 474.15303366 412.04181287 478.27734375 413.8046875 C479.18621338 414.19358154 480.09508301 414.58247559 481.03149414 414.9831543 C482.81272062 415.73131741 484.60221645 416.46015542 486.40014648 417.16723633 C487.21427002 417.50779053 488.02839355 417.84834473 488.8671875 418.19921875 C489.59276855 418.48756592 490.31834961 418.77591309 491.06591797 419.07299805 C493.78335061 421.12262437 494.00857136 423.15733023 494.875 426.4375 C495.2706011 429.57390331 495.38711949 432.70408796 495.49191284 435.86224365 C495.5295285 436.88512663 495.56714416 437.9080096 495.60589969 438.96188903 C496.1832653 457.36013056 496.01622605 475.78208362 496.00572467 494.18687296 C496.00344132 500.11736062 496.00696461 506.04784544 496.00970459 511.97833252 C496.01412978 523.56430558 496.01320044 535.15027212 496.01029195 546.73624542 C496.00798962 556.15769836 496.0077045 565.57914958 496.00881577 575.00060272 C496.00893034 576.0085802 496.00893034 576.0085802 496.00904724 577.03692085 C496.00935863 579.76541477 496.00967703 582.49390868 496.010007 585.22240259 C496.01305816 610.757458 496.01030476 636.29250987 496.0049101 661.82756473 C496.00016319 684.4687039 496.00059186 707.10983744 496.00537109 729.75097656 C496.01073543 755.24856393 496.01284385 780.74614818 496.00975883 806.24373603 C496.00943816 808.9657108 496.00912532 811.68768557 496.00881577 814.40966034 C496.00873669 815.0797733 496.00865761 815.74988627 496.00857614 816.44030569 C496.00744288 826.52048959 496.00876099 836.60067122 496.01129532 846.6808548 C496.01410848 858.14945484 496.01332305 869.61804804 496.00801457 881.0866473 C496.00539831 886.93016453 496.00433713 892.77367038 496.00766373 898.6171875 C496.01066957 903.97857638 496.00896337 909.33994346 496.00368617 914.70133039 C496.00258015 916.62827755 496.00311218 918.5552266 496.00556196 920.48217252 C496.02043387 933.16482732 495.61937269 945.77639487 494.875 958.4375 C493.78916122 958.97024536 492.70332245 959.50299072 491.58457947 960.05187988 C479.10476843 966.18152677 466.92240636 972.80387601 454.98730469 979.9375 C446.8464383 984.8020177 438.55514921 989.35201148 430.1875 993.8125 C429.58307068 994.13478577 428.97864136 994.45707153 428.355896 994.78912354 C425.9268848 996.08382508 423.49748882 997.37780149 421.06768799 998.67102051 C406.6646158 1006.33799136 392.43369999 1014.22747277 378.36474609 1022.49267578 C368.56474041 1028.23706344 358.65933569 1033.60460365 348.4375 1038.5625 C340.70996015 1042.38246301 333.34388855 1046.78812462 325.92138672 1051.16455078 C318.65300904 1055.43744816 311.31113707 1059.50009567 303.82421875 1063.375 C299.7845334 1065.4668957 295.79950414 1067.65535733 291.80932617 1069.83984375 C288.86741593 1071.44162931 285.91451865 1073.02093187 282.95703125 1074.59375 C268.94747859 1082.05683471 255.1766681 1089.84513476 241.49902344 1097.89794922 C233.0073805 1102.88011338 224.48240807 1107.69559431 215.625 1112 C208.03281392 1115.7075432 200.70177953 1119.86162282 193.375 1124.0625 C192.77120514 1124.40860321 192.16741028 1124.75470642 191.5453186 1125.11129761 C185.23503168 1128.73339413 178.94452834 1132.38687116 172.68359375 1136.09375 C161.16725314 1142.90426409 149.52801582 1149.29755488 137.61376953 1155.38793945 C128.54680998 1160.03828518 119.73276269 1165.02896401 110.96142578 1170.20996094 C102.41804641 1175.2364191 93.75917439 1180.00393604 84.93798828 1184.5246582 C74.17564951 1190.04654759 63.7503721 1195.98281176 53.3815918 1202.21069336 C44.80847188 1207.3413486 36.13368921 1212.25590571 27.375 1217.0625 C26.7741156 1217.39229858 26.1732312 1217.72209717 25.55413818 1218.06188965 C20.58510339 1220.78626495 15.610141 1223.49954367 10.625 1226.19433594 C9.12453125 1227.00692871 9.12453125 1227.00692871 7.59375 1227.8359375 C6.70623047 1228.31466309 5.81871094 1228.79338867 4.90429688 1229.28662109 C2.94491331 1230.27883778 2.94491331 1230.27883778 1.875 1231.4375 C1.77928029 1232.93033798 1.75311773 1234.42769655 1.75474548 1235.92359924 C1.75337082 1236.89260162 1.75199615 1237.861604 1.75057983 1238.85997009 C1.75417511 1239.93170975 1.75777039 1241.0034494 1.76147461 1242.10766602 C1.76132858 1243.22947266 1.76118256 1244.3512793 1.7610321 1245.50708008 C1.7617318 1249.23520811 1.76952685 1252.96328689 1.77734375 1256.69140625 C1.77920773 1259.26830518 1.78063173 1261.84520447 1.78163147 1264.42210388 C1.78506658 1270.52425115 1.7929574 1276.62637794 1.80298096 1282.72851747 C1.81414311 1289.6739925 1.8196528 1296.61946835 1.82467639 1303.56495011 C1.83514004 1317.85580966 1.85273885 1332.1466542 1.875 1346.4375 C3.30281201 1345.81139216 4.72971966 1345.18322174 6.15625 1344.55419922 C7.34831055 1344.02981766 7.34831055 1344.02981766 8.56445312 1343.49484253 C11.77030087 1342.02779626 14.82559834 1340.32503254 17.875 1338.5625 C19.25751259 1337.77421337 20.64034863 1336.98649383 22.0234375 1336.19921875 C22.78366211 1335.76528809 23.54388672 1335.33135742 24.32714844 1334.88427734 C29.36962552 1332.02094664 34.43754417 1329.20280333 39.5 1326.375 C46.06513333 1322.70576387 52.61903701 1319.02314799 59.125 1315.25 C71.01228296 1308.43851394 83.16255612 1302.067199 95.625 1296.375 C102.94000841 1293.0267939 109.80613663 1289.10045629 116.6796875 1284.9296875 C120.73662112 1282.48369666 124.88413261 1280.2219684 129.05029297 1277.96826172 C131.76414729 1276.49757317 134.46555 1275.00642828 137.1640625 1273.5078125 C145.44318621 1268.92978163 153.69009536 1264.40198743 162.3125 1260.5 C171.1643407 1256.47614557 179.52088744 1251.64458725 187.953125 1246.81640625 C200.60014864 1239.57496529 213.37604627 1232.57835261 226.46264648 1226.1628418 C231.3794117 1223.73591581 236.06618929 1221.01888076 240.76953125 1218.20703125 C244.30167569 1216.19437536 247.90968249 1214.40548358 251.5625 1212.625 C257.32973891 1209.80767065 262.87363542 1206.74297346 268.375 1203.4375 C276.34883383 1198.6623982 284.52337561 1194.50437796 292.875 1190.4375 C304.82602457 1184.5949645 316.68308197 1178.74931723 328.07714844 1171.87109375 C333.24887173 1168.75952806 338.54695708 1166.04602953 343.97265625 1163.3984375 C354.58752573 1158.14288521 364.88431645 1152.20500561 375.2421875 1146.46484375 C383.58196065 1141.84804336 391.93193289 1137.36379778 400.48828125 1133.16015625 C404.1608918 1131.29208099 407.7356425 1129.29327704 411.3125 1127.25 C417.74005585 1123.5854492 424.24835635 1120.10114338 430.8125 1116.6875 C431.78316406 1116.1824292 432.75382812 1115.6773584 433.75390625 1115.15698242 C438.84823678 1112.51226438 443.95128734 1109.88537016 449.0625 1107.2734375 C460.62074563 1101.34636408 471.9395423 1095.15582391 483.11889648 1088.54101562 C496.12620851 1080.8746319 509.56023446 1074.05942578 523.07592773 1067.34301758 C534.73036232 1061.53858295 546.12713963 1055.32248751 557.4375 1048.875 C564.44415641 1044.88472601 571.46638645 1041.01957887 578.70996094 1037.4777832 C584.92175653 1034.43989193 591.05622124 1031.25942913 597.1875 1028.0625 C598.19748047 1027.537771 599.20746094 1027.01304199 600.24804688 1026.47241211 C601.19357422 1025.97878174 602.13910156 1025.48515137 603.11328125 1024.9765625 C603.95930908 1024.53521973 604.80533691 1024.09387695 605.67700195 1023.63916016 C608.05488644 1022.38082724 608.05488644 1022.38082724 610.875 1020.4375 C612.23387583 1014.55363099 612.01363548 1008.546152 611.99804783 1002.5341959 C611.9997786 1000.89364412 611.9997786 1000.89364412 612.00154433 999.21994987 C612.00419896 995.54160195 611.99969826 991.86329748 611.99525452 988.18495178 C611.99569045 985.52666263 611.99652355 982.8683763 611.99784368 980.21008772 C611.99991619 974.42361191 611.99827573 968.63714638 611.99420547 962.85067177 C611.98816997 954.24639857 611.98786972 945.64213186 611.98874746 937.03785693 C611.99006139 922.56403973 611.98671984 908.09022709 611.98073006 893.61641121 C611.97481415 879.28438354 611.97096433 864.95235778 611.96987724 850.6203289 C611.9698085 849.7293891 611.96973976 848.8384493 611.96966894 847.92051132 C611.96933061 843.39592515 611.96902923 838.87133899 611.96874207 834.34675281 C611.96664135 802.29456243 611.95990314 770.24237453 611.95043945 738.19018555 C611.94125591 707.05086276 611.93417186 675.91154066 611.92993164 644.7722168 C611.92980011 643.81245953 611.92966859 642.85270226 611.92953308 641.86386144 C611.92821456 632.22563263 611.92693875 622.58740382 611.92569422 612.949175 C611.92315797 593.31478505 611.92033671 573.68039514 611.91734314 554.04600525 C611.9171372 552.69185273 611.9171372 552.69185273 611.91692711 551.31034359 C611.90772559 491.01939469 611.89188029 430.72844718 611.875 370.4375 C610.22081055 369.61360023 610.22081055 369.61360023 608.53320312 368.77305603 C607.0741991 368.04527662 605.61521582 367.31745562 604.15625 366.58959961 C603.43083008 366.22842796 602.70541016 365.86725632 601.95800781 365.49514008 C597.19171183 363.1159787 592.48963838 360.66322326 587.875 358 C587.22023682 357.62786377 586.56547363 357.25572754 585.89086914 356.87231445 C583.25309 355.37298175 580.62054898 353.86457515 577.98779297 352.35644531 C569.66515236 347.59754069 561.26163001 343.03812214 552.75 338.625 C538.52304361 331.24719135 524.44039989 323.62865751 510.52319336 315.68115234 C500.09889978 309.73082377 489.54860285 304.09660052 478.87475586 298.60693359 C464.47905122 291.19575418 450.2595206 283.51526507 436.34741211 275.22998047 C424.55697977 268.24254063 412.50522119 261.63645639 400.1875 255.625 C385.51492016 248.45520053 371.30960017 240.18789964 357.1875 232 C352.74058859 229.44097981 348.22768995 227.07585934 343.625 224.8125 C329.05980124 217.64842064 314.65007634 210.01098152 300.75 201.625 C291.23200101 195.88509133 281.35657689 190.80121987 271.53076172 185.61499023 C264.77050164 182.04539873 258.01569313 178.47672966 251.375 174.6875 C236.17458499 166.01422262 220.69822938 157.82420293 205.1953125 149.70703125 C200.5596585 147.27819524 195.95084975 144.80042942 191.34301758 142.31933594 C188.34518557 140.71590946 185.33569191 139.16041879 182.26953125 137.69140625 C173.94374885 133.69157256 166.06698766 129.19878691 158.1875 124.375 C149.13032824 118.84274797 139.95237961 113.74652238 130.5 108.9375 C110.96931054 98.99124939 91.92051792 88.26672191 73.02929688 77.15307617 C66.89395152 73.56191866 60.73294666 70.22096876 54.33203125 67.125 C46.74772074 63.42282809 39.32024776 59.40991651 31.875 55.4375 C30.9984375 54.97230957 30.121875 54.50711914 29.21875 54.02783203 C26.55722807 52.6114807 23.90283686 51.18254184 21.25 49.75 C20.44546387 49.32299805 19.64092773 48.89599609 18.81201172 48.45605469 C13.67784693 45.66025405 9.14627399 42.47370508 4.61181641 38.78198242 C3.10927355 37.33547823 3.10927355 37.33547823 1.875 37.4375 Z " fill="#000000" transform="translate(1089.125,78.5625)"/>
<path d="M0 0 C2.36565 1.31656149 4.5235312 2.66651531 6.75 4.1875 C13.78863505 8.80127783 21.06766872 12.74061756 28.5625 16.5625 C35.37542919 20.04408125 42.12568069 23.5211017 48.625 27.5625 C55.51610436 31.83584781 62.6647632 35.54529059 69.86816406 39.26220703 C77.24857535 43.07336337 84.57500113 46.97453018 91.875 50.9375 C93.3444104 51.73462402 93.3444104 51.73462402 94.84350586 52.54785156 C99.7408137 55.21044916 104.62452869 57.8957744 109.49414062 60.60864258 C112.5916025 62.32848233 115.69606958 64.03548698 118.80078125 65.7421875 C120.0384339 66.4231363 121.27606377 67.10412649 122.51367188 67.78515625 C124.4083523 68.82775496 126.30325995 69.86992736 128.19897461 70.91064453 C134.65564706 74.45597827 141.08592099 78.02707561 147.43359375 81.765625 C151.79570603 84.32797958 156.1910164 86.68722595 160.75 88.875 C171.12986648 93.97726545 181.21443601 99.53428767 190.94848633 105.78564453 C197.58351433 110.04502792 204.2399406 113.69487937 211.41796875 116.95678711 C222.79399467 122.13657039 233.96429013 127.95396867 244.58862305 134.54589844 C247.04021629 136.02425111 249.52714061 137.39911373 252.046875 138.7578125 C255.96160955 140.88198604 259.85711472 143.03472353 263.734375 145.2265625 C278.41916235 153.52681805 293.26613785 161.44196475 308.26123047 169.16455078 C317.34861325 173.85650889 326.19739076 178.85394074 335 184.0625 C343.82546431 189.27531442 352.7071855 193.92184012 362.05517578 198.10888672 C365.4320798 199.65617515 368.74627786 201.32749634 372.0625 203 C373.20847656 203.5775 374.35445312 204.155 375.53515625 204.75 C376.34855469 205.1625 377.16195312 205.575 378 206 C378 207.65 378 209.3 378 211 C377.46632813 211.13535156 376.93265625 211.27070312 376.3828125 211.41015625 C370.68026143 213.05777914 366.5459277 215.54781197 361.78515625 219.04296875 C354.50666214 224.15731033 346.54287 228.28876677 338.5625 232.1875 C329.05296396 236.86204134 319.91356588 242.20236645 310.71484375 247.45458984 C307.0294691 249.55246948 303.32740878 251.61989677 299.625 253.6875 C295.78229774 255.83516354 291.96191195 258.00877418 288.19140625 260.28125 C279.39817182 265.57370582 270.442324 270.43469799 261.3125 275.125 C248.77049376 281.57210795 236.65463952 288.15087606 224.9453125 296.03515625 C221.90294615 298.06474547 218.85450193 300.06649441 215.75 302 C214.83734375 302.5775 213.9246875 303.155 212.984375 303.75 C208.6048705 305.58434744 204.5900526 305.9136606 200.12304688 304.33789062 C198.14786874 303.39305884 196.26823524 302.34980471 194.375 301.25 C193.27841064 300.64381836 193.27841064 300.64381836 192.15966797 300.02539062 C189.7641686 298.69896124 187.38177926 297.35088848 185 296 C181.71574133 294.153113 178.42374248 292.32089102 175.125 290.5 C173.78671143 289.76088379 173.78671143 289.76088379 172.42138672 289.00683594 C163.59292963 284.2000155 154.55838125 279.8508874 145.5 275.5 C129.53110968 267.82763554 113.96578498 259.61594895 98.625 250.75 C93.19098105 247.61523818 87.65903484 244.77099471 82.03417969 242.0012207 C77.43251649 239.73205193 72.89119499 237.37205265 68.375 234.9375 C63.70275248 232.421441 59.00603723 229.98094884 54.25 227.625 C39.58871592 220.34344708 25.20420772 212.52205823 10.80761719 204.73413086 C9.7509082 204.16315674 8.69419922 203.59218262 7.60546875 203.00390625 C6.66856201 202.49674072 5.73165527 201.9895752 4.76635742 201.46704102 C3.85345947 200.98291748 2.94056152 200.49879395 2 200 C0.96182129 199.4421582 -0.07635742 198.88431641 -1.14599609 198.30957031 C-5.00051155 196.54091155 -6.90299443 196.94893574 -11 198 C-14.31858293 199.26425713 -17.49694618 200.75596574 -20.6875 202.3125 C-21.60813232 202.7561792 -22.52876465 203.1998584 -23.47729492 203.65698242 C-30.64684606 207.18205766 -37.47408056 211.14091525 -44.27294922 215.32763672 C-50.67280233 219.25575368 -57.19352569 222.8922671 -63.8125 226.4375 C-74.64840603 232.24585033 -85.3568479 238.25514183 -96.04638672 244.32763672 C-102.23913684 247.83402937 -108.45491685 251.29947464 -114.66821289 254.76928711 C-119.70548816 257.58502684 -124.73465092 260.41290547 -129.7421875 263.28125 C-141.06906525 269.7594911 -152.49781376 275.9567991 -164.16357422 281.8046875 C-166.24095718 282.85982559 -168.30399424 283.94382541 -170.34951782 285.05947304 C-172.88579082 286.44034994 -175.45552547 287.6630497 -178.08654785 288.85194969 C-185.75544367 292.51684871 -185.75544367 292.51684871 -190.91090584 298.96461344 C-192.3609829 304.71983627 -192.00552575 310.61076118 -191.81640625 316.49462891 C-191.8118879 318.46651845 -191.81443656 320.43843488 -191.82348633 322.41030884 C-191.82806313 327.7425072 -191.73426574 333.06890432 -191.62230301 338.39975786 C-191.52202526 343.97814736 -191.51286398 349.55668203 -191.49389648 355.13583374 C-191.44423838 365.69073707 -191.313049 376.24297706 -191.15230465 386.79670942 C-190.97323198 398.81568225 -190.88543745 410.83478487 -190.80517769 422.85476041 C-190.6381019 447.57131481 -190.35682442 472.28550796 -190 497 C-189.39236816 497.26636261 -188.78473633 497.53272522 -188.15869141 497.80715942 C-187.35608887 498.16099701 -186.55348633 498.51483459 -185.7265625 498.87939453 C-184.93330566 499.22825714 -184.14004883 499.57711975 -183.32275391 499.93655396 C-175.23047681 503.64150955 -167.59392225 508.47993742 -160.26953125 513.5078125 C-157.59430238 515.26674095 -154.84177919 516.84833147 -152.0625 518.4375 C-148.30382279 520.60086963 -144.70772986 522.84300743 -141.1875 525.375 C-132.18705764 531.81422323 -122.50281874 537.2501286 -112.7734375 542.5 C-101.8109796 548.42899132 -91.37503823 554.93489657 -80.953125 561.76171875 C-70.386758 568.68191638 -59.71458297 575.24583088 -48.64013672 581.32324219 C-41.99394945 584.9759993 -35.48509135 588.82337961 -29.01269531 592.77441406 C-26.7602353 594.14599937 -24.50133016 595.5066394 -22.2421875 596.8671875 C-20.61960774 597.84865432 -18.99720921 598.83042084 -17.375 599.8125 C-16.23708008 600.49687134 -16.23708008 600.49687134 -15.07617188 601.19506836 C-11.91883638 603.11530884 -9.14202746 604.86891423 -6.4140625 607.38671875 C-4.03055987 609.2907334 -4.03055987 609.2907334 -0.73046875 609.08203125 C4.03705787 607.69919892 7.59248809 605.4389433 11.6875 602.6875 C13.36715842 601.59300649 15.04819497 600.50062558 16.73046875 599.41015625 C17.59462402 598.84699707 18.4587793 598.28383789 19.34912109 597.70361328 C23.67888157 594.92105032 28.08343285 592.26692307 32.5 589.625 C33.34377197 589.11976807 34.18754395 588.61453613 35.05688477 588.09399414 C40.18717106 585.03857173 45.36208703 582.09683214 50.6328125 579.2890625 C53.93181223 577.4925775 57.12460392 575.53328411 60.33203125 573.5793457 C62.91960377 572.0475918 65.54120968 570.61973046 68.1953125 569.20703125 C73.59449344 566.27473302 78.73289689 563.04449783 83.875 559.6875 C93.77121278 553.30875574 103.85854084 547.31579268 114.03320312 541.39819336 C115.27086819 540.67828258 116.5084985 539.95831204 117.74609375 539.23828125 C118.35601166 538.88352219 118.96592957 538.52876312 119.59432983 538.16325378 C125.72652727 534.58948594 131.80119641 530.92195541 137.875 527.25 C145.91349759 522.4000425 154.01039381 517.67488217 162.1875 513.0625 C163.13625 512.52077148 164.085 511.97904297 165.0625 511.42089844 C169.15762927 509.09464553 173.23417746 506.8451219 177.51171875 504.87109375 C178.17469971 504.54810303 178.83768066 504.2251123 179.52075195 503.89233398 C181.21244324 503.07822843 182.92949167 502.31735927 184.6484375 501.5625 C188.61465972 497.2405037 187.9560447 491.65898918 188 486 C187.21729736 486.01047363 186.43459473 486.02094727 185.62817383 486.03173828 C167.87134585 486.23195086 150.1717273 485.97154141 132.42928314 485.2251873 C111.1087043 484.3361303 89.78601983 483.68668041 68.453125 483.18359375 C67.11911191 483.15194642 65.78509892 483.12029461 64.45108604 483.08863831 C54.35871319 482.84981047 44.26614431 482.61969849 34.17355347 482.39030457 C25.30106173 482.18855399 16.42865489 481.98371633 7.55635834 481.77354622 C3.79131927 481.68565262 0.0261967 481.60240713 -3.73895264 481.51939392 C-6.03267965 481.46555536 -8.32640148 481.41149566 -10.62011719 481.35717773 C-12.15786804 481.32520546 -12.15786804 481.32520546 -13.72668457 481.29258728 C-19.54237933 481.14919426 -25.22740922 480.72779281 -31 480 C-31.10526137 471.22911861 -30.8295554 462.55911848 -30.1875 453.8125 C-30.09839355 452.56766846 -30.00928711 451.32283691 -29.91748047 450.0402832 C-28.29923579 427.9530231 -26.21908242 405.90902838 -24 383.875 C-23.91529449 383.03378601 -23.83058899 382.19257202 -23.74331665 381.3258667 C-23.57328809 379.63783464 -23.40322906 377.94980565 -23.23313904 376.26177979 C-20.0855476 346.64255635 -20.0855476 346.64255635 -18.2902832 316.9230957 C-18.09402848 311.09402848 -18.09402848 311.09402848 -17 310 C-15.53832167 309.90558883 -14.07209162 309.88061557 -12.60737038 309.88356113 C-11.65929331 309.88305276 -10.71121624 309.88254438 -9.73440957 309.88202059 C-8.6871658 309.88659726 -7.63992203 309.89117393 -6.5609436 309.89588928 C-4.92168651 309.89724146 -4.92168651 309.89724146 -3.24931312 309.89862096 C0.39029463 309.90290625 4.02984236 309.91442259 7.66943359 309.92602539 C10.22605511 309.93067652 12.78267736 309.93493628 15.33930016 309.93882084 C21.95179214 309.95030905 28.56424187 309.9681598 35.17671108 309.98842478 C38.77503473 309.99931891 42.37335911 310.00907393 45.97168732 310.01832199 C60.54889014 310.05632663 75.12601121 310.10949151 89.70314074 310.16899753 C93.37927576 310.18396096 97.05541184 310.19863928 100.73154831 310.21324348 C113.74030847 310.26499395 126.74906242 310.31809214 139.7578125 310.37231445 C150.28221892 310.41614381 160.80663147 310.45772819 171.33105469 310.49731445 C222.09827608 310.68884495 272.86528899 310.88585729 323.63006544 311.44213986 C326.44226542 311.47245497 329.25447824 311.50107688 332.06669998 311.52929497 C336.36694657 311.57289135 340.66710047 311.6216737 344.96723604 311.67509151 C346.52135774 311.69375624 348.07549953 311.71082519 349.62965727 311.72619939 C351.72059212 311.74732739 353.81135355 311.77455983 355.90219116 311.80360413 C357.06467566 311.81745179 358.22716015 311.83129946 359.42487144 311.84556675 C362 312 362 312 363 313 C363.09679771 314.49607017 363.12371741 315.99671337 363.12304783 317.4959116 C363.12503888 318.47325341 363.12702993 319.45059522 363.12908131 320.45755345 C363.12616847 321.54410613 363.12325563 322.63065881 363.12025452 323.75013733 C363.12110894 324.89438641 363.12196337 326.0386355 363.12284368 327.2175588 C363.12421182 330.40775506 363.12106454 333.59791123 363.11606562 336.78810275 C363.11176428 340.22301844 363.11320732 343.65793211 363.1139679 347.09284973 C363.11449333 353.04876719 363.11134448 359.00467374 363.10573006 364.96058846 C363.09761771 373.57193825 363.09500011 382.18328274 363.09374207 390.79463594 C363.09155113 404.76454219 363.08488991 418.73444262 363.07543945 432.7043457 C363.06626642 446.27823863 363.05918505 459.85212999 363.05493164 473.42602539 C363.05466892 474.26212143 363.05440619 475.09821747 363.05413551 475.95964975 C363.05283051 480.15391906 363.05156679 484.34818837 363.05032361 488.5424577 C363.03994969 523.36164262 363.02233024 558.18082077 363 593 C361.37884781 593.80167099 361.37884781 593.80167099 359.72494507 594.61953735 C358.28320885 595.33560236 356.84153105 596.05178498 355.39990234 596.76806641 C354.33563271 597.29376976 354.33563271 597.29376976 353.24986267 597.83009338 C346.8298936 601.02498052 340.73000407 604.61099382 334.625 608.375 C322.8257392 615.54231958 310.94731171 622.45001643 298.66015625 628.75 C287.40589248 634.52246422 276.4930051 640.62123279 265.69799805 647.21484375 C257.8502353 651.97378039 249.85927296 656.39742057 241.75 660.6875 C230.02425744 666.89306108 218.47943752 673.35188496 207 680 C196.13908573 686.27408396 185.2399049 692.44352481 174.1875 698.375 C163.93691368 703.88132205 153.87597255 709.67076924 143.84765625 715.5703125 C137.29930107 719.42202998 130.70382687 723.18883838 124.10009766 726.94458008 C119.60280991 729.50436797 115.13239217 732.0998153 110.6875 734.75 C106.46092776 737.2278502 102.14429827 739.46332868 97.75 741.625 C80.24286372 750.24947835 63.30220861 759.89809871 46.484375 769.78515625 C40.07768949 773.55023825 33.62004312 777.21645341 27.12207031 780.82128906 C25.55235128 781.69319467 23.98423346 782.56798439 22.41699219 783.44433594 C19.65548776 784.98824582 16.89066039 786.52604932 14.125 788.0625 C13.2494043 788.55258545 12.37380859 789.0426709 11.47167969 789.54760742 C10.65860352 789.99724854 9.84552734 790.44688965 9.0078125 790.91015625 C8.28223145 791.31371338 7.55665039 791.71727051 6.80908203 792.13305664 C5 793 5 793 3 793 C3 793.66 3 794.32 3 795 C-1.83986928 799.83986928 -1.83986928 799.83986928 -5.7734375 800.3828125 C-9.79039996 799.90622373 -12.61350026 798.31554316 -16 796.25 C-17.41421194 795.41990813 -18.82964748 794.59189849 -20.24609375 793.765625 C-21.00647949 793.31896484 -21.76686523 792.87230469 -22.55029297 792.41210938 C-27.00195894 789.84599058 -31.53947143 787.43729977 -36.0625 785 C-44.21409828 780.57872339 -52.20836138 775.96962573 -60.12109375 771.13720703 C-64.33391853 768.58739702 -68.59183691 766.11298701 -72.84106445 763.62451172 C-76.54139911 761.45467722 -80.22800031 759.26439621 -83.90234375 757.05078125 C-88.81726173 754.0976983 -93.77141085 751.21921965 -98.75 748.375 C-99.64614014 747.86211426 -100.54228027 747.34922852 -101.46557617 746.82080078 C-108.03244046 743.07922195 -114.65997951 739.46145519 -121.3125 735.875 C-131.47624391 730.38296206 -141.24942188 724.40412049 -150.921875 718.09375 C-158.24277667 713.42420191 -165.82625028 709.49585185 -173.5625 705.5625 C-183.50898072 700.49016902 -193.16613047 695.0820623 -202.6875 689.25 C-203.28474884 688.88425873 -203.88199768 688.51851746 -204.49734497 688.14169312 C-209.80526579 684.88357581 -215.0939916 681.59615119 -220.33203125 678.2265625 C-229.23486165 672.51009353 -238.44811728 667.51140715 -247.80264282 662.57907104 C-255.6564301 658.43076106 -263.24913486 654.0944383 -270.62084961 649.13745117 C-282.74439272 641.06751738 -295.74348949 634.19264354 -308.68432617 627.53149414 C-317.11981661 623.18780772 -325.06475816 618.24119233 -333.03735352 613.09960938 C-343.29201495 606.49078953 -353.61997681 600.42960091 -364.76953125 595.421875 C-367 594 -367 594 -367.63153923 592.29707891 C-368.08930068 589.44327669 -368.12541584 586.71666701 -368.12584114 583.82486248 C-368.12844889 582.54919279 -368.13105664 581.2735231 -368.13374341 579.95919675 C-368.13158121 578.54048059 -368.12932455 577.12176458 -368.12698364 575.70304871 C-368.1281355 574.1980615 -368.12972346 572.69307457 -368.13171089 571.18808824 C-368.13589623 567.045743 -368.13381698 562.90342071 -368.13072467 558.76107538 C-368.1284672 554.29508645 -368.13195217 549.82910154 -368.13470459 545.3631134 C-368.13915961 536.60619647 -368.1381864 527.8492881 -368.13529195 519.09237083 C-368.13303414 511.96594601 -368.13272705 504.8395236 -368.13381577 497.71309853 C-368.133969 496.69894818 -368.13412223 495.68479783 -368.13428011 494.63991565 C-368.13459984 492.5794776 -368.13492406 490.51903956 -368.1352527 488.45860151 C-368.13810741 469.11415105 -368.13482204 449.76970532 -368.12945233 430.42525563 C-368.12499711 413.86414916 -368.12574963 397.3030497 -368.13037109 380.74194336 C-368.13573917 361.49645491 -368.13781923 342.25097063 -368.13475883 323.00548154 C-368.1344403 320.94678803 -368.13412593 318.88809453 -368.13381577 316.82940102 C-368.13366149 315.81662477 -368.13350721 314.80384852 -368.13334826 313.76038208 C-368.13248884 306.66079699 -368.13393384 299.56121455 -368.13629532 292.46162987 C-368.13911892 283.78174847 -368.13830212 275.1018761 -368.13301457 266.42199572 C-368.13040982 262.00200695 -368.12931668 257.58203314 -368.13266373 253.16204453 C-368.15369338 222.73901636 -368.15369338 222.73901636 -367.55441284 208.35444641 C-367.49630926 206.94201763 -367.49630926 206.94201763 -367.43703187 205.50105494 C-367.13096679 199.26193357 -367.13096679 199.26193357 -366 197 C-364.54244976 196.44010596 -363.05621205 195.95470687 -361.5625 195.5 C-349.25209711 191.20011801 -338.11354397 183.67827981 -326.95629883 177.03271484 C-319.31775072 172.52617117 -311.49330505 168.36826594 -303.67285156 164.18823242 C-297.16239478 160.70796413 -290.68597324 157.17850817 -284.25 153.5625 C-279.08629583 150.66197957 -273.88687648 147.90609019 -268.5625 145.3125 C-263.48993684 142.81969753 -258.80790255 140.03630123 -254.0859375 136.94140625 C-239.89489193 128.01362188 -224.72572094 120.26271685 -209.67895508 112.8828125 C-203.37537414 109.78983947 -197.42105214 106.50045156 -191.54296875 102.63671875 C-185.14806488 98.52079752 -178.300454 95.15623239 -171.5715332 91.62597656 C-170.78480225 91.2131543 -169.99807129 90.80033203 -169.1875 90.375 C-168.3833667 89.9531543 -167.5792334 89.53130859 -166.75073242 89.09667969 C-154.07941681 82.43236927 -141.50535434 75.5817857 -129.0625 68.5 C-121.72007243 64.32214919 -114.22090928 60.46468002 -106.71484375 56.59082031 C-100.39410013 53.30729002 -94.19879353 49.865489 -88.0625 46.25 C-81.89782035 42.61924884 -75.68292728 39.25655469 -69.25463867 36.11914062 C-60.65208195 31.89562489 -52.29737886 27.21137104 -43.90380859 22.59082031 C-40.94917557 20.97215639 -37.98588118 19.37051682 -35.01953125 17.7734375 C-34.04258301 17.24588867 -33.06563477 16.71833984 -32.05908203 16.17480469 C-30.20631422 15.17485824 -28.35193456 14.17788989 -26.49560547 13.18457031 C-20.77401738 10.08695736 -15.35264876 6.69685343 -10 3 C-6.35719128 0.51626678 -4.41186288 -0.52669711 0 0 Z M-2 39 C-2 79.92 -2 120.84 -2 163 C1.3 164.32 4.6 165.64 8 167 C10.56689303 168.21940228 13.09964582 169.45276058 15.625 170.75 C17.02331134 171.45988398 18.42175234 172.16951261 19.8203125 172.87890625 C20.51930664 173.23484863 21.21830078 173.59079102 21.93847656 173.95751953 C23.86645622 174.93246898 25.80167542 175.8901331 27.7421875 176.83984375 C36.55620625 181.16413855 45.17964545 185.79317684 53.79199219 190.50512695 C64.66327721 196.42028584 75.68323445 202.04128342 86.71801758 207.64404297 C92.91959171 210.80225081 99.06504097 213.97537378 105.046875 217.5390625 C111.45680697 221.34423071 118.08478466 224.62798702 124.77337646 227.90765381 C131.27721359 231.09833315 137.7643891 234.32303994 144.25317383 237.54418945 C145.95294363 238.3865346 147.65378461 239.22672182 149.35571289 240.06469727 C160.3802652 245.49580912 171.12130539 251.2407887 181.69897461 257.50024414 C185.97619038 260.01839424 190.34075596 262.34751047 194.75 264.625 C195.69107857 265.11881416 195.69107857 265.11881416 196.65116882 265.62260437 C200.78032477 267.68685583 204.3650387 268.97396089 209 269 C211.58903751 267.66343191 213.58574231 266.41723765 215.875 264.6875 C217.19236585 263.75104922 218.51279796 262.81890007 219.8359375 261.890625 C220.5175293 261.40916016 221.19912109 260.92769531 221.90136719 260.43164062 C225.3318811 258.09142034 228.90550176 256.01362907 232.5 253.9375 C233.93366491 253.10689364 235.36725897 252.27616499 236.80078125 251.4453125 C237.50154785 251.03958008 238.20231445 250.63384766 238.92431641 250.21582031 C241.5759261 248.66265444 244.19525645 247.0595525 246.81616211 245.45532227 C253.19822133 241.5578116 259.67650638 238.09189429 266.40234375 234.80859375 C272.41667858 231.83213712 278.21425022 228.45093282 284.03613281 225.11865234 C285.94252195 224.03274048 287.85639785 222.96150591 289.7734375 221.89453125 C301.91935395 216.08509511 301.91935395 216.08509511 311 207 C310.4237085 206.72961914 309.84741699 206.45923828 309.25366211 206.18066406 C288.87033767 196.59087562 268.99613494 186.54761832 249.77148438 174.78930664 C241.71763166 169.91359176 233.50169761 165.47349914 225.125 161.1875 C224.50587738 160.87067261 223.88675476 160.55384521 223.24887085 160.22741699 C220.2477346 158.69405508 217.24349747 157.1669744 214.23779297 155.64257812 C202.82645833 149.85344681 191.63629409 143.83371694 180.625 137.3125 C171.71502191 132.03742401 162.65722848 127.14085555 153.4375 122.4375 C138.98961851 115.06333243 124.88610106 107.16121419 110.859375 99.015625 C100.13172191 92.8046084 89.26473831 86.95708138 78.23950195 81.2902832 C63.63664321 73.7791468 49.2217439 65.92564322 34.875 57.9375 C31.91714276 56.29080876 28.95894776 54.64473105 26 53 C25.0728418 52.48453613 24.14568359 51.96907227 23.19042969 51.43798828 C20.213303 49.78646848 17.23211233 48.14249732 14.25 46.5 C13.3204248 45.98300537 12.39084961 45.46601074 11.43310547 44.93334961 C10.55283691 44.45003174 9.67256836 43.96671387 8.765625 43.46875 C7.98993164 43.04013672 7.21423828 42.61152344 6.41503906 42.16992188 C3.47565494 40.68187983 3.47565494 40.68187983 -2 39 Z M13 343 C12.97723495 343.70481003 12.95446991 344.40962006 12.93101501 345.13578796 C12.49140331 358.40816751 11.98392801 371.60423694 10.5625 384.8125 C10.29553449 387.43619401 10.02860751 390.05989193 9.76171875 392.68359375 C9.63200684 393.92866699 9.50229492 395.17374023 9.36865234 396.45654297 C6.84834302 420.0538443 6.84834302 420.0538443 5.99072266 443.75341797 C5.99206207 444.73776825 5.99340149 445.72211853 5.99478149 446.73629761 C5.99736465 447.85683029 5.99736465 447.85683029 6 449 C6.70266495 449.03314301 7.4053299 449.06628601 8.12928772 449.10043335 C14.9601844 449.42277538 21.79104283 449.74591874 28.62186527 450.06982994 C32.12834398 450.23607909 35.63483384 450.40208252 39.14135742 450.56738281 C42.53465391 450.72736424 45.92791395 450.88810059 49.32115173 451.04932213 C50.72858163 451.11609936 52.13602207 451.18265496 53.54347229 451.24900246 C61.67408095 451.63269537 69.80272615 452.03813145 77.9296875 452.49291992 C105.8976834 454.04429059 133.8753049 454.8226944 161.875 455.5625 C170.06270721 455.77976374 178.25031391 456.00022297 186.43777847 456.22645378 C189.66652277 456.31434651 192.89536309 456.39763529 196.12423706 456.48060608 C198.09959474 456.53446901 200.07494703 456.58853021 202.05029297 456.64282227 C202.92914154 456.66413712 203.80799011 456.68545197 204.71347046 456.70741272 C210.19254289 456.86383624 215.55911673 457.32983872 221 458 C220.88195839 465.54405226 220.75713819 473.08797092 220.62768555 480.63183594 C220.58447031 483.19626343 220.54278621 485.76071722 220.50268555 488.32519531 C220.44465704 492.01896067 220.38105743 495.71259533 220.31640625 499.40625 C220.29969376 500.5461438 220.28298126 501.6860376 220.26576233 502.86047363 C220.1588516 508.65227643 219.85655559 514.26930778 219 520 C218.45472656 520.1549292 217.90945313 520.3098584 217.34765625 520.46948242 C211.30463541 522.31660663 206.32632454 524.95344292 201 528.3125 C193.37198783 533.00926773 185.65174987 537.47789916 177.8125 541.8125 C161.99387509 550.59872511 146.36861138 559.73775312 131.25 569.6875 C121.76502016 575.92319708 111.88954285 581.43733224 102 587 C97.34965834 589.61710209 92.7026163 592.23981986 88.0625 594.875 C87.46691284 595.21319763 86.87132568 595.55139526 86.25769043 595.89984131 C77.24327468 601.03064959 68.43906124 606.43555736 59.72583008 612.06420898 C51.86847294 617.12906096 43.8395252 621.83205407 35.71533203 626.453125 C30.78066548 629.26431429 25.85836891 632.0969942 20.93688965 634.93118286 C19.22764806 635.91440527 17.51667591 636.89461732 15.80566406 637.87475586 C6.77640675 642.22369371 6.77640675 642.22369371 0 649 C-0.09202562 650.45717088 -0.12193276 651.91849765 -0.12025452 653.37857056 C-0.12162918 654.29846268 -0.12300385 655.2183548 -0.12442017 656.16612244 C-0.12082489 657.17816238 -0.11722961 658.19020233 -0.11352539 659.23291016 C-0.11367142 660.2963414 -0.11381744 661.35977264 -0.1139679 662.45542908 C-0.11326919 665.98332737 -0.10547871 669.51117339 -0.09765625 673.0390625 C-0.09579192 675.48001069 -0.09436809 677.92095926 -0.09336853 680.36190796 C-0.08954451 686.79647855 -0.0797152 693.23102668 -0.06866455 699.66558838 C-0.05844795 706.22757666 -0.05387038 712.78956856 -0.04882812 719.3515625 C-0.03809284 732.2343846 -0.02120915 745.11719111 0 758 C3.70488225 756.56729164 6.7992018 754.92929797 10.125 752.75 C17.00198689 748.3668655 24.24461962 744.7086246 31.5 741 C39.55880245 736.87598698 47.51680159 732.75628025 55.12890625 727.84375 C71.15887395 717.54967551 87.96678956 708.49417077 104.8125 699.625 C120.86631255 691.16878358 136.63439606 682.2871319 152 672.625 C157.729001 669.05760096 163.66848377 666.08410061 169.71875 663.11328125 C184.31113604 655.94160813 198.3440076 647.94894315 212.29541016 639.609375 C224.46218138 632.36949813 236.72364984 625.29648966 249.2890625 618.76953125 C259.33948956 613.53979721 269.18323864 608.07523223 278.90283203 602.25439453 C284.54980332 598.87672998 290.2225024 595.54246118 295.90478516 592.22460938 C297.30176128 591.40810597 298.69727324 590.58909231 300.09130859 589.76757812 C308.08674018 585.06770064 315.85238254 580.9736366 324.62109375 577.875 C326.92249302 577.21735426 326.92249302 577.21735426 328 576 C329.10192094 569.88621 329.1417879 563.68156327 329.12025452 557.48973083 C329.12110894 556.57549239 329.12196337 555.66125394 329.12284368 554.7193113 C329.12448075 551.67930885 329.11900635 548.63936253 329.11352539 545.59936523 C329.11324311 543.41087343 329.11340205 541.22238152 329.1139679 539.03388977 C329.11425427 533.10898351 329.1083833 527.18409759 329.10139394 521.25919604 C329.09513386 515.06123124 329.0945545 508.86326594 329.09336853 502.66529846 C329.09026304 490.93582533 329.08206019 479.20636155 329.07201904 467.47689253 C329.06411214 458.10267823 329.05864857 448.72846492 329.05493164 439.35424805 C329.05466892 438.69349954 329.05440619 438.03275103 329.05413551 437.35197984 C329.0528304 434.03695175 329.05156897 430.72192364 329.05032361 427.40689552 C329.03987693 399.93792517 329.02229263 372.46896311 329 345 C304.16163273 344.24828729 279.33809183 343.81640006 254.48894882 343.69668961 C249.94655603 343.67400008 245.4041889 343.6468768 240.86181641 343.6204834 C232.17295584 343.57077917 223.48407787 343.52558741 214.79518294 343.48234785 C207.82342763 343.44758955 200.85168409 343.41097688 193.87994385 343.37332153 C133.58636581 343.04866718 73.2945191 342.84386629 13 343 Z " fill="#000000" transform="translate(1093,371)"/>
<path d="M0 0 C40.8065625 -0.0928125 40.8065625 -0.0928125 82.4375 -0.1875 C90.98068115 -0.21481201 99.5238623 -0.24212402 108.32592773 -0.27026367 C118.8770752 -0.28381348 118.8770752 -0.28381348 123.8394928 -0.28633118 C127.25512212 -0.28909055 130.67060704 -0.30018755 134.0861969 -0.31672668 C206.70442449 -0.65222955 206.70442449 -0.65222955 234 25 C249.42047057 41.13077456 257.72727487 60.08531932 258.25 82.5625 C257.6926795 105.0192377 249.38496563 124.53086099 233.46655273 140.19213867 C227.86202585 145.43684628 221.75897386 149.38473491 215 153 C216.74023438 153.72703125 216.74023438 153.72703125 218.515625 154.46875 C241.95659567 164.44769771 258.94315833 177.87889499 269 202 C271.6810635 209.73772826 273.65708673 217.79990002 274 226 C274.03996094 226.81210938 274.07992188 227.62421875 274.12109375 228.4609375 C274.79435758 255.47069827 264.33446482 281.08445378 245.875 300.625 C228.06104732 317.80186496 204.74391459 324.32695593 180.44921875 325.52734375 C179.62741623 325.56866928 178.80561371 325.60999481 177.95890808 325.65257263 C118.76490287 328.4757252 59.11747089 327 0 327 C0 219.09 0 111.18 0 0 Z M67 56 C67 80.42 67 104.84 67 130 C88.25593377 130.07329632 109.50729949 130.10219913 130.76068115 129.73654175 C132.73281709 129.70418756 134.7050362 129.67651811 136.67730713 129.65383911 C153.25011448 129.45434343 170.57180304 129.19049715 183.375 117.1875 C190.10901786 109.92399283 192.92585037 101.69818355 193.03515625 91.82421875 C192.55172783 81.79013124 190.19954038 73.23840373 183.171875 65.8203125 C169.87729974 54.67773683 153.30517606 55.71598296 137.01953125 55.8046875 C134.99501181 55.80842364 132.97049054 55.81126777 130.94596863 55.81326294 C125.65077611 55.82085206 120.35569555 55.84045937 115.06054688 55.8626709 C108.68938256 55.88685489 102.31818054 55.89593281 95.94698334 55.90757751 C86.29791133 55.92688698 76.64908437 55.96524244 67 56 Z M67 186 C67 214.05 67 242.1 67 271 C107.47119724 271.1688121 107.47119724 271.1688121 147.9375 270.625 C148.69057434 270.60962189 149.44364868 270.59424377 150.21954346 270.57839966 C167.44302443 270.21197812 183.29466423 268.79295878 196 256 C202.84988652 246.82907755 206.02699102 236.48708471 205 225 C203.25274861 213.4503722 199.45711418 203.96678968 190.1796875 196.52734375 C173.51839032 184.85249214 152.58256897 185.84557241 133.11328125 185.90234375 C131.41678907 185.90381706 129.72029644 185.90483537 128.02380371 185.90539551 C121.78669547 185.9106033 115.549597 185.92456448 109.3125 185.9375 C88.3678125 185.9684375 88.3678125 185.9684375 67 186 Z " fill="#000000" transform="translate(1035,1585)"/>
<path d="M0 0 C40.8065625 -0.0928125 40.8065625 -0.0928125 82.4375 -0.1875 C90.98068115 -0.21481201 99.5238623 -0.24212402 108.32592773 -0.27026367 C118.8770752 -0.28381348 118.8770752 -0.28381348 123.8394928 -0.28633118 C127.25512212 -0.28909055 130.67060704 -0.30018755 134.0861969 -0.31672668 C206.70442449 -0.65222955 206.70442449 -0.65222955 234 25 C249.42047057 41.13077456 257.72727487 60.08531932 258.25 82.5625 C257.6926795 105.0192377 249.38496563 124.53086099 233.46655273 140.19213867 C227.86202585 145.43684628 221.75897386 149.38473491 215 153 C216.74023438 153.72703125 216.74023438 153.72703125 218.515625 154.46875 C241.95659567 164.44769771 258.94315833 177.87889499 269 202 C271.6810635 209.73772826 273.65708673 217.79990002 274 226 C274.03996094 226.81210938 274.07992188 227.62421875 274.12109375 228.4609375 C274.79435758 255.47069827 264.33446482 281.08445378 245.875 300.625 C228.06104732 317.80186496 204.74391459 324.32695593 180.44921875 325.52734375 C179.62741623 325.56866928 178.80561371 325.60999481 177.95890808 325.65257263 C118.76490287 328.4757252 59.11747089 327 0 327 C0 219.09 0 111.18 0 0 Z M67 56 C67 80.42 67 104.84 67 130 C88.25593377 130.07329632 109.50729949 130.10219913 130.76068115 129.73654175 C132.73281709 129.70418756 134.7050362 129.67651811 136.67730713 129.65383911 C153.25011448 129.45434343 170.57180304 129.19049715 183.375 117.1875 C190.10901786 109.92399283 192.92585037 101.69818355 193.03515625 91.82421875 C192.55172783 81.79013124 190.19954038 73.23840373 183.171875 65.8203125 C169.87729974 54.67773683 153.30517606 55.71598296 137.01953125 55.8046875 C134.99501181 55.80842364 132.97049054 55.81126777 130.94596863 55.81326294 C125.65077611 55.82085206 120.35569555 55.84045937 115.06054688 55.8626709 C108.68938256 55.88685489 102.31818054 55.89593281 95.94698334 55.90757751 C86.29791133 55.92688698 76.64908437 55.96524244 67 56 Z M67 186 C67 214.05 67 242.1 67 271 C107.47119724 271.1688121 107.47119724 271.1688121 147.9375 270.625 C148.69057434 270.60962189 149.44364868 270.59424377 150.21954346 270.57839966 C167.44302443 270.21197812 183.29466423 268.79295878 196 256 C202.84988652 246.82907755 206.02699102 236.48708471 205 225 C203.25274861 213.4503722 199.45711418 203.96678968 190.1796875 196.52734375 C173.51839032 184.85249214 152.58256897 185.84557241 133.11328125 185.90234375 C131.41678907 185.90381706 129.72029644 185.90483537 128.02380371 185.90539551 C121.78669547 185.9106033 115.549597 185.92456448 109.3125 185.9375 C88.3678125 185.9684375 88.3678125 185.9684375 67 186 Z " fill="#000000" transform="translate(273,1585)"/>
<path d="M0 0 C1.88863014 0.00333092 1.88863014 0.00333092 3.81541443 0.00672913 C4.50806396 0.0065831 5.2007135 0.00643707 5.91435242 0.00628662 C8.21400537 0.00698577 10.51357828 0.01477823 12.81321716 0.02259827 C14.40362504 0.02446244 15.99403349 0.02588635 17.58444214 0.02688599 C21.77827021 0.03071123 25.97206386 0.04054156 30.1658783 0.05158997 C34.44220006 0.06180395 38.71852736 0.06638358 42.99485779 0.07142639 C51.39135799 0.08216383 59.78783017 0.09924032 68.18431091 0.12025452 C71.07558193 5.73040203 73.59180158 11.37445489 75.90330505 17.24452209 C76.25513698 18.12947987 76.6069689 19.01443764 76.96946239 19.92621231 C78.13939144 22.8711208 79.30435601 25.8179682 80.46946716 28.76478577 C81.30966056 30.88174585 82.15022595 32.99855832 82.99113464 35.11523438 C84.79820631 39.66538062 86.60331816 44.2162972 88.40687561 48.76783752 C93.00551947 60.37223614 97.61586969 71.97198604 102.22723174 83.57133532 C102.98481284 85.47703432 103.74226508 87.38278451 104.49970436 89.28853989 C115.13291933 116.03995679 125.86821776 142.74997146 136.62104797 169.45352554 C148.9413696 200.05123874 161.24946996 230.65054201 173.23875427 261.379776 C174.02652869 263.39876388 174.81436882 265.41772612 175.60227966 267.43666077 C175.97662643 268.39602036 176.35097321 269.35537994 176.73666382 270.34381104 C179.61025124 277.69148903 182.53857967 285.01639017 185.48509216 292.33509827 C185.9164296 293.40741699 186.34776703 294.47973572 186.79217529 295.58454895 C188.82384197 300.63249772 190.8615005 305.67789516 192.90916443 310.71937561 C193.61301002 312.4636181 194.31671362 314.20791789 195.02024841 315.95228577 C195.34394913 316.74287888 195.66764984 317.53347198 196.00115967 318.34802246 C197.23374128 321.41497414 198.18431091 323.78224677 198.18431091 327.12025452 C174.42431091 327.12025452 150.66431091 327.12025452 126.18431091 327.12025452 C123.13524896 320.41231822 120.22191964 313.88320062 117.69602966 306.99916077 C117.39135773 306.17989105 117.08668579 305.36062134 116.77278137 304.51652527 C115.80247237 301.90648654 114.8371559 299.29463271 113.87181091 296.68275452 C112.54411344 293.10610093 111.21293903 289.53075484 109.87962341 285.95619202 C109.5575441 285.09247482 109.23546478 284.22875763 108.90362549 283.33886719 C106.15540919 275.99336293 103.29238031 268.70070759 100.26707458 261.46424866 C99.04680341 258.51003552 98.18431091 256.35261216 98.18431091 253.12025452 C55.28431091 253.45025452 12.38431091 253.78025452 -31.81568909 254.12025452 C-39.20861298 274.7760133 -39.20861298 274.7760133 -46.5940094 295.4344635 C-48.03590393 299.45631409 -48.03590393 299.45631409 -48.71479797 301.34719849 C-49.18171448 302.64968569 -49.64729791 303.9526513 -50.11177063 305.25601196 C-50.8213676 307.24635768 -51.53537126 309.23507559 -52.2502594 311.223526 C-52.64996948 312.34049362 -53.04967957 313.45746124 -53.46150208 314.60827637 C-55.09360035 318.84099565 -56.97324977 322.97476605 -58.81568909 327.12025452 C-82.24568909 327.12025452 -105.67568909 327.12025452 -129.81568909 327.12025452 C-121.79204725 304.19556356 -121.79204725 304.19556356 -118.53834534 296.14369202 C-118.17027267 295.22141815 -117.80220001 294.29914429 -117.42297363 293.34892273 C-116.64496224 291.39964614 -115.86529499 289.45102967 -115.08399963 287.50306702 C-112.97475375 282.24169643 -110.8806603 276.97431464 -108.78834534 271.70619202 C-108.36534149 270.64116455 -107.94233765 269.57613708 -107.5065155 268.47883606 C-103.51157012 258.3960748 -99.64878556 248.2654179 -95.81568909 238.12025452 C-89.73516337 222.035144 -83.45525021 206.03610551 -77.09742737 190.05873108 C-71.55424518 176.12171454 -66.12019249 162.14979753 -60.81568909 148.12025452 C-55.12264643 133.06308881 -49.26712729 118.0771329 -43.31568909 103.12025452 C-37.26505498 87.91201498 -31.30524246 72.67514491 -25.50318909 57.37025452 C-25.18026886 56.51859711 -24.85734863 55.6669397 -24.52464294 54.78947449 C-24.04500595 53.52440567 -24.04500595 53.52440567 -23.55567932 52.23377991 C-22.91582827 50.54618278 -22.27593597 48.85860129 -21.63600159 47.17103577 C-21.1664782 45.9327578 -21.1664782 45.9327578 -20.68746948 44.66946411 C-17.43147815 36.0917602 -14.13439039 27.53011023 -10.81608582 18.97633362 C-10.19545072 17.37588549 -9.57578641 15.77506053 -8.95713806 14.17384338 C-8.11190335 11.98695386 -7.26320585 9.80144354 -6.41334534 7.61634827 C-6.16313629 6.9675621 -5.91292725 6.31877594 -5.65513611 5.65032959 C-3.50648323 0.14975746 -3.50648323 0.14975746 0 0 Z M31.18431091 79.12025452 C20.65131694 107.60175248 10.14956665 136.09496944 -0.2240448 164.63496399 C-1.15969936 167.20879234 -2.09761368 169.78177973 -3.03746033 172.3540802 C-4.35059587 175.94861003 -5.6558552 179.54596968 -6.96022034 183.14369202 C-7.35295135 184.21607117 -7.74568237 185.28845032 -8.15031433 186.39332581 C-8.68040604 187.86182983 -8.68040604 187.86182983 -9.22120667 189.36000061 C-9.53092911 190.21177887 -9.84065155 191.06355713 -10.15975952 191.94114685 C-10.95980588 194.21975332 -10.95980588 194.21975332 -10.81568909 197.12025452 C17.89431091 197.12025452 46.60431091 197.12025452 76.18431091 197.12025452 C73.93179631 189.47324805 73.93179631 189.47324805 71.35350037 181.98573303 C71.0244017 181.1026799 70.69530304 180.21962677 70.35623169 179.30981445 C70.00688065 178.38229874 69.6575296 177.45478302 69.29759216 176.49916077 C68.92322525 175.49716141 68.54885834 174.49516205 68.16314697 173.46279907 C66.94400335 170.2016647 65.72042599 166.94221346 64.49681091 163.68275452 C63.64670448 161.41123246 62.79693637 159.13958376 61.94749451 156.86781311 C60.21170206 152.22609181 58.47452053 147.58489377 56.73655701 142.94398499 C54.33136556 136.51774732 51.93704539 130.08751486 49.54759216 123.65541077 C49.18537064 122.68050186 48.82314911 121.70559296 48.44995117 120.70114136 C47.07140028 116.99026412 45.69312773 113.27928387 44.31556702 109.56803894 C42.53952487 104.78428936 40.75806231 100.00264282 38.96861267 95.22389221 C38.20649845 93.17976547 37.45401922 91.13229678 36.7028656 89.0841217 C36.26103943 87.89721741 35.81921326 86.71031311 35.36399841 85.48744202 C34.98743103 84.46505432 34.61086365 83.44266663 34.22288513 82.38929749 C33.40120353 79.96738539 33.40120353 79.96738539 31.18431091 79.12025452 Z " fill="#000000" transform="translate(749.8156890869141,1584.8797454833984)"/>
<path d="M0 0 C22.11 0 44.22 0 67 0 C67.01981934 6.31213623 67.03963867 12.62427246 67.06005859 19.12768555 C67.12709671 40.03050799 67.20463722 60.93328186 67.28752708 81.83604717 C67.33750698 94.50388588 67.38395077 107.1717186 67.421875 119.83959961 C67.45496457 130.88948565 67.49488757 141.93932301 67.54279006 152.98915511 C67.56788756 158.83214534 67.58971689 164.67510399 67.60334396 170.51813316 C67.61631811 176.03468973 67.63853226 181.55113703 67.66738319 187.06763268 C67.67634058 189.07610887 67.6821209 191.0846026 67.68421364 193.09309769 C67.69665609 203.23451632 67.96390765 213.2850683 68.88711548 223.38874817 C68.96331442 224.2424316 69.03951337 225.09611503 69.11802137 225.97566766 C70.55080768 240.14334563 76.33549579 251.81302698 86.625 261.75 C99.92228307 272.57518543 115.58437063 275.57664135 132.3125 275.4375 C134.21563965 275.42722778 134.21563965 275.42722778 136.15722656 275.41674805 C152.71559272 275.133853 166.56493995 271.76492542 178.9296875 260.21875 C188.29991173 250.17669837 190.983878 237.66920942 192.08944702 224.42247009 C192.17473895 223.41280086 192.26003089 222.40313162 192.34790742 221.36286634 C193.17489184 210.88166635 193.30785594 200.43645379 193.31884766 189.92797852 C193.32818025 187.83593879 193.33835364 185.74390269 193.34928894 183.65187073 C193.37622835 178.0542453 193.39162927 172.45664448 193.40471697 166.85897183 C193.42050812 160.9787018 193.44724596 155.09848095 193.4727478 149.21824646 C193.51925597 138.11966702 193.55613402 127.02107803 193.58942068 115.92245191 C193.62784151 103.2715844 193.67719832 90.62076663 193.72740483 77.96994126 C193.83030804 51.97999324 193.91825887 25.99002378 194 0 C216.11 0 238.22 0 261 0 C261.04540826 25.47228758 261.08213973 50.94454163 261.10362434 76.41685963 C261.11387177 88.24805478 261.12780463 100.07922272 261.15087891 111.91040039 C261.17101553 122.24037103 261.18376368 132.57032193 261.18817699 142.90031165 C261.19075064 148.35365382 261.19665747 153.80693962 261.21146011 159.26026344 C261.5009418 270.35464765 261.5009418 270.35464765 232.39404297 300.60693359 C208.54949672 324.43477613 174.58402865 332.2541742 141.91900635 332.41348267 C139.84239503 332.41126045 137.76578285 332.40378225 135.68920898 332.39111328 C132.56775122 332.37502706 129.447591 332.39107398 126.32617188 332.41015625 C94.35162285 332.44233912 62.02172472 327.46902182 37 306 C36.14535156 305.31679687 35.29070312 304.63359375 34.41015625 303.9296875 C12.43684569 285.57909532 4.87659239 258.38113703 2 231 C-0.28088767 205.58482263 -0.27253095 180.16613306 -0.20278788 154.67203975 C-0.19005906 149.21093574 -0.18909296 143.7498281 -0.18673706 138.28871155 C-0.18058599 128.00499266 -0.16426404 117.72131764 -0.14403808 107.43761784 C-0.12147737 95.70552212 -0.11063559 83.97342401 -0.10064721 72.24131191 C-0.07989006 48.16084488 -0.04329636 24.08043778 0 0 Z " fill="#000000" transform="translate(1415,1585)"/>
<path d="M0 0 C22.11 0 44.22 0 67 0 C67 88.44 67 176.88 67 268 C121.12 268 175.24 268 231 268 C231 286.48 231 304.96 231 324 C154.77 324 78.54 324 0 324 C0 217.08 0 110.16 0 0 Z " fill="#000000" transform="translate(1798,1588)"/>
<path d="M0 0 C5.65919923 4.32762294 8.53215565 9.86631609 10.75 16.5625 C10.75 17.5525 10.75 18.5425 10.75 19.5625 C5.14 20.5525 -0.47 21.5425 -6.25 22.5625 C-6.9925 21.304375 -7.735 20.04625 -8.5 18.75 C-11.19433087 14.44211504 -13.36778048 12.18990651 -18.25 10.5625 C-24.9849682 10.00048487 -31.62587898 9.62115986 -37.59765625 13.15625 C-41.64305719 16.59914441 -44.34620005 21.33853629 -45.25 26.5625 C-46.19212633 40.64685675 -46.19212633 40.64685675 -41.25 53.5625 C-37.65543601 57.59917613 -33.50270813 60.32123861 -28.11328125 60.8984375 C-21.28640349 60.97354067 -15.9875418 60.72116925 -9.921875 57.4375 C-8.25 56.5625 -8.25 56.5625 -6.25 56.5625 C-6.25 53.5925 -6.25 50.6225 -6.25 47.5625 C-12.19 47.5625 -18.13 47.5625 -24.25 47.5625 C-24.25 42.6125 -24.25 37.6625 -24.25 32.5625 C-12.37 32.5625 -0.49 32.5625 11.75 32.5625 C11.915 37.71875 12.08 42.875 12.25 48.1875 C12.32283203 49.80350098 12.39566406 51.41950195 12.47070312 53.08447266 C12.6301218 63.33226498 12.6301218 63.33226498 10.12915039 66.828125 C8.06709524 68.41353277 6.12351129 69.51072166 3.75 70.5625 C2.32494141 71.35914063 2.32494141 71.35914063 0.87109375 72.171875 C-12.81647252 77.98958876 -27.37984429 79.35174442 -41.578125 74.40234375 C-52.48642998 69.48264339 -58.09524692 62.26889358 -62.33984375 51.26171875 C-66.36451045 39.32590464 -65.44886986 24.97426078 -60.25 13.5625 C-55.26166105 4.86525198 -47.13463458 -2.12634032 -37.43261719 -4.97021484 C-25.26771178 -7.57464761 -10.52279979 -6.72289987 0 0 Z " fill="#000000" transform="translate(333.25,1959.4375)"/>
<path d="M0 0 C6.71740014 4.09948403 10.43650799 9.96889086 12.5 17.4375 C14.87272046 27.35978557 14.15783853 38.81238833 9.17578125 47.8359375 C4.91098 53.85815029 0.39189968 57.20877042 -6.875 58.8125 C-13.39293781 59.80301429 -18.31796086 59.01038907 -23.9375 55.375 C-26.5 53.4375 -26.5 53.4375 -27.5 52.4375 C-27.83 61.3475 -28.16 70.2575 -28.5 79.4375 C-33.78 79.4375 -39.06 79.4375 -44.5 79.4375 C-44.5 53.0375 -44.5 26.6375 -44.5 -0.5625 C-39.55 -0.5625 -34.6 -0.5625 -29.5 -0.5625 C-29.17 1.0875 -28.84 2.7375 -28.5 4.4375 C-28.02949219 4.08816406 -27.55898437 3.73882813 -27.07421875 3.37890625 C-26.45160156 2.92386719 -25.82898437 2.46882813 -25.1875 2 C-24.57261719 1.54753906 -23.95773437 1.09507813 -23.32421875 0.62890625 C-17.19211671 -3.37599979 -6.52540633 -2.96494191 0 0 Z M-25.5 15.4375 C-29.17686451 22.16601319 -29.40034303 28.84340957 -27.375 36.125 C-25.63904585 40.79189069 -23.81730588 42.91228336 -19.5 45.4375 C-15.93336235 46.2989035 -12.99127297 46.24226184 -9.7265625 44.48046875 C-6.34075147 41.87917491 -4.74139018 39.43942451 -3.5 35.4375 C-3.14725671 32.05935102 -3.14725671 32.05935102 -3.1875 28.5 C-3.17074219 27.31535156 -3.15398437 26.13070313 -3.13671875 24.91015625 C-3.65115721 19.99256711 -5.35105763 16.72161206 -8.625 13.0625 C-14.54605065 9.7158192 -20.96896178 10.1068668 -25.5 15.4375 Z " fill="#000000" transform="translate(1052.5,1977.5625)"/>
<path d="M0 0 C5.61 0 11.22 0 17 0 C17 8.91 17 17.82 17 27 C19.31 25.35 21.62 23.7 24 22 C30.19502431 19.9349919 38.36517212 19.84248041 44.625 21.8359375 C49.64614921 24.66984368 52.17493681 28.62080781 54 34 C54.50462949 37.70168879 54.46866732 41.33230536 54.390625 45.0625 C54.38496521 46.09439453 54.37930542 47.12628906 54.37347412 48.18945312 C54.35122256 51.4601229 54.3010463 54.7296657 54.25 58 C54.22992054 60.22784868 54.21167231 62.45571466 54.1953125 64.68359375 C54.1513944 70.12282492 54.08244416 75.56122189 54 81 C48.72 81 43.44 81 38 81 C37.970271 79.27499268 37.970271 79.27499268 37.93994141 77.51513672 C37.86363954 73.23220615 37.77496054 68.94960444 37.68261719 64.66699219 C37.64442878 62.81647249 37.60955849 60.96588113 37.578125 59.11523438 C37.53225359 56.44895893 37.47429641 53.78317252 37.4140625 51.1171875 C37.40251129 50.29507782 37.39096008 49.47296814 37.37905884 48.62594604 C37.26332195 44.0805308 36.8651006 40.22982612 35 36 C31.54430561 34.27215281 27.77878001 34.51502289 24 35 C20.51399209 37.41339009 19.27472134 40.02864958 18 44 C17.76765431 46.8886654 17.62855287 49.69141227 17.5859375 52.58203125 C17.56657135 53.39621017 17.5472052 54.2103891 17.5272522 55.04924011 C17.46771248 57.63688852 17.42117417 60.22458203 17.375 62.8125 C17.3367966 64.57228449 17.2977435 66.33205074 17.2578125 68.09179688 C17.16044024 72.3944337 17.08067008 76.69688818 17 81 C11.39 81 5.78 81 0 81 C0 54.27 0 27.54 0 0 Z " fill="#000000" transform="translate(1258,1955)"/>
<path d="M0 0 C0.92490234 -0.020625 1.84980469 -0.04125 2.80273438 -0.0625 C9.9894612 -0.1033627 14.71240275 0.93603547 20.5 5.4375 C24.86300205 11.04707406 24.98173857 17.87686787 25.03125 24.73046875 C25.0458728 25.50634842 25.06049561 26.28222809 25.07556152 27.08161926 C25.13722491 30.36471955 25.17745243 33.64799253 25.21923828 36.93139648 C25.25305789 39.34378254 25.29811934 41.75578181 25.34375 44.16796875 C25.3490271 44.90452194 25.3543042 45.64107513 25.35974121 46.39994812 C25.43861142 50.48358341 26.02269042 53.5369928 27.6875 57.25 C27.6875 58.24 27.6875 59.23 27.6875 60.25 C22.4075 60.25 17.1275 60.25 11.6875 60.25 C10.6975 58.27 9.7075 56.29 8.6875 54.25 C7.965625 54.86875 7.24375 55.4875 6.5 56.125 C1.26643342 60.0792503 -4.11933106 61.496657 -10.703125 61.109375 C-17.44971099 60.15740274 -21.88775902 57.43722898 -26.3125 52.25 C-28.26182768 46.40201697 -28.59561336 38.88978919 -25.8125 33.25 C-20.41936531 26.77823838 -12.43779169 25.2664225 -4.5 23.5 C-3.55962891 23.27957031 -2.61925781 23.05914063 -1.65039062 22.83203125 C5.22309297 21.25 5.22309297 21.25 8.6875 21.25 C8.0275 18.94 7.3675 16.63 6.6875 14.25 C4.60531638 14.14167831 2.52150871 14.06426459 0.4375 14 C-0.72265625 13.95359375 -1.8828125 13.9071875 -3.078125 13.859375 C-6.94328841 14.32618217 -7.91464407 15.28017844 -10.3125 18.25 C-10.9725 18.91 -11.6325 19.57 -12.3125 20.25 C-15.5703125 20.0078125 -15.5703125 20.0078125 -19.4375 19.375 C-20.71882812 19.17132812 -22.00015625 18.96765625 -23.3203125 18.7578125 C-24.30773437 18.59023437 -25.29515625 18.42265625 -26.3125 18.25 C-25.5786196 12.12559331 -23.41569842 8.7298205 -19.3125 4.25 C-13.26255301 -0.21543706 -7.24806148 0.03990674 0 0 Z M-1.875 35.5625 C-3.01066406 35.80613281 -4.14632812 36.04976562 -5.31640625 36.30078125 C-8.23734559 37.22618967 -9.57138253 37.76625536 -11.3125 40.25 C-11.31093776 42.84117313 -11.31093776 42.84117313 -10.3125 45.25 C-6.26466032 47.94855979 -3.06510609 48.01916112 1.6875 47.25 C4.62635125 45.9418157 5.51832906 44.85300513 7.6875 42.25 C8.45613774 39.47777989 8.58884612 37.16028938 8.6875 34.25 C4.88543766 34.25 1.82157826 34.74243998 -1.875 35.5625 Z " fill="#000000" transform="translate(789.3125,1975.75)"/>
<path d="M0 0 C0.9075 -0.02449219 1.815 -0.04898437 2.75 -0.07421875 C9.96282654 -0.10539812 15.07121392 1.48206977 20.68359375 6.05078125 C21.36615234 6.86095703 21.36615234 6.86095703 22.0625 7.6875 C22.53558594 8.21988281 23.00867187 8.75226563 23.49609375 9.30078125 C24.625 11.375 24.625 11.375 25.625 18.375 C20.675 19.035 15.725 19.695 10.625 20.375 C9.635 18.725 8.645 17.075 7.625 15.375 C4.89422124 14.00961062 2.66939633 14.24268174 -0.375 14.25 C-1.4475 14.24742188 -2.52 14.24484375 -3.625 14.2421875 C-6.33682052 14.1877659 -6.33682052 14.1877659 -8.375 15.375 C-8.375 16.365 -8.375 17.355 -8.375 18.375 C-3.42773476 20.14188044 1.45189937 21.59227205 6.57739258 22.76245117 C21.60016765 26.23352393 21.60016765 26.23352393 26.296875 32.6640625 C28.62035484 37.40669488 28.24857062 42.21828117 27.625 47.375 C24.96632648 52.99911705 20.58525448 56.99813745 14.9375 59.625 C4.58244076 61.96954171 -7.25791459 62.64724672 -16.8125 57.25 C-21.91465443 53.58552892 -25.71952457 48.99690173 -27.25 42.875 C-27.311875 41.6375 -27.311875 41.6375 -27.375 40.375 C-24.70595137 39.98677474 -22.05623252 39.65420273 -19.375 39.375 C-18.58480469 39.28347656 -17.79460937 39.19195313 -16.98046875 39.09765625 C-14.63574524 38.93823061 -12.67433915 38.87612957 -10.375 39.375 C-7.9375 42.3125 -7.9375 42.3125 -6.375 45.375 C-3.66937257 46.72781371 -1.45606345 46.58109362 1.5625 46.625 C2.62339844 46.65078125 3.68429687 46.6765625 4.77734375 46.703125 C7.65283909 46.62889916 7.65283909 46.62889916 9.50390625 44.859375 C9.87386719 44.36953125 10.24382812 43.8796875 10.625 43.375 C10.295 42.385 9.965 41.395 9.625 40.375 C7.24429193 39.3796393 7.24429193 39.3796393 4.3046875 38.7265625 C2.665 38.30117187 2.665 38.30117187 0.9921875 37.8671875 C-1.31203473 37.29499809 -3.61671406 36.72464585 -5.921875 36.15625 C-12.43213472 34.4638874 -17.29546808 32.85569667 -22.375 28.375 C-25.10174859 23.62517987 -26.04317115 19.81582223 -25.375 14.375 C-23.54182726 9.13173174 -21.18243351 5.35103027 -16.375 2.375 C-10.93819758 0.04494182 -5.81579516 0.00819126 0 0 Z " fill="#000000" transform="translate(1986.375,1975.625)"/>
<path d="M0 0 C4.788486 2.91113484 7.98115647 6.96388115 10.25 12.0625 C10.745 15.0325 10.745 15.0325 11.25 18.0625 C5.97 18.7225 0.69 19.3825 -4.75 20.0625 C-5.74 18.0825 -6.73 16.1025 -7.75 14.0625 C-11.76510341 11.38576439 -15.03162738 11.3701301 -19.75 12.0625 C-23.23640157 14.47616263 -24.42751691 17.11186197 -25.75 21.0625 C-26.44653679 28.2087865 -26.54311286 34.83095745 -22.75 41.0625 C-20.83756405 43.34271209 -19.54669627 43.93167718 -16.6328125 44.41015625 C-14.20708911 44.56524348 -12.13517909 44.53690026 -9.75 44.0625 C-6.7497063 41.29299812 -5.58882316 38.74014632 -3.75 35.0625 C1.53 35.3925 6.81 35.7225 12.25 36.0625 C11.15731169 43.05570519 9.47278656 48.10948548 4.25 53.0625 C-3.79482821 58.65226857 -11.90161689 59.8079879 -21.4375 58.375 C-29.56418225 56.63520324 -35.0155291 52.92676328 -39.75 46.0625 C-44.63809315 37.14220549 -45.20362177 26.39996734 -42.5 16.6875 C-40.06465252 9.6295022 -36.01050668 4.17018422 -29.75 0.0625 C-21.15763965 -3.60741484 -8.5774425 -3.7918572 0 0 Z " fill="#000000" transform="translate(1761.75,1977.9375)"/>
<path d="M0 0 C2.475 1.485 2.475 1.485 5 3 C3.35 8.28 1.7 13.56 0 19 C-1.32 18.67 -2.64 18.34 -4 18 C-6.76756516 17.57297334 -9.24660343 17.42331325 -12 18 C-18.93510354 24.93510354 -17.26488136 37.88511195 -17.5625 47.0625 C-17.60568359 48.30966797 -17.64886719 49.55683594 -17.69335938 50.84179688 C-17.7986225 53.89442762 -17.89973337 56.94720106 -18 60 C-23.28 60 -28.56 60 -34 60 C-34 40.53 -34 21.06 -34 1 C-29.05 1 -24.1 1 -19 1 C-18.67 2.32 -18.34 3.64 -18 5 C-17.2575 4.175 -16.515 3.35 -15.75 2.5 C-11.23922052 -1.28948539 -5.57480014 -0.90037149 0 0 Z " fill="#000000" transform="translate(574,1976)"/>
<path d="M0 0 C5.28 0 10.56 0 16 0 C16 19.47 16 38.94 16 59 C10.72 59 5.44 59 0 59 C0 39.53 0 20.06 0 0 Z " fill="#000000" transform="translate(1509,1977)"/>
<path d="M0 0 C5.28 0 10.56 0 16 0 C16 4.95 16 9.9 16 15 C10.72 15 5.44 15 0 15 C0 10.05 0 5.1 0 0 Z " fill="#000000" transform="translate(1509,1955)"/>
</svg>
